<?xml version="1.0" encoding="UTF-8" standalone="no"?>
<!-- Created with Inkscape (http://www.inkscape.org/) -->

<svg
   xmlns:dc="http://purl.org/dc/elements/1.1/"
   xmlns:cc="http://creativecommons.org/ns#"
   xmlns:rdf="http://www.w3.org/1999/02/22-rdf-syntax-ns#"
   xmlns:svg="http://www.w3.org/2000/svg"
   xmlns="http://www.w3.org/2000/svg"
   xmlns:xlink="http://www.w3.org/1999/xlink"
   xmlns:sodipodi="http://sodipodi.sourceforge.net/DTD/sodipodi-0.dtd"
   xmlns:inkscape="http://www.inkscape.org/namespaces/inkscape"
   width="188.38893"
   height="158.70763"
   id="svg2"
   version="1.1"
   inkscape:version="0.48.4 r9939"
   sodipodi:docname="M.svg"
   inkscape:export-filename="/home/raphael/Science/MLadmin/Logo/M_80.png"
   inkscape:export-xdpi="80"
   inkscape:export-ydpi="80">
  <defs
     id="defs4">
    <linearGradient
       inkscape:collect="always"
       id="linearGradient3812">
      <stop
         style="stop-color:#216778;stop-opacity:1;"
         offset="0"
         id="stop3814" />
      <stop
         style="stop-color:#216778;stop-opacity:0;"
         offset="1"
         id="stop3816" />
    </linearGradient>
    <linearGradient
       id="linearGradient3796">
      <stop
         style="stop-color:#10283d;stop-opacity:1;"
         offset="0"
         id="stop3798" />
      <stop
         style="stop-color:#0b2155;stop-opacity:0.39215687;"
         offset="1"
         id="stop3800" />
    </linearGradient>
    <linearGradient
       inkscape:collect="always"
       xlink:href="#linearGradient3796"
       id="linearGradient3802"
       x1="211.1431"
       y1="76.696495"
       x2="281.26855"
       y2="95.479012"
       gradientUnits="userSpaceOnUse"
       gradientTransform="matrix(5,0,0,5,-1042.7155,-328.80032)" />
    <linearGradient
       inkscape:collect="always"
       xlink:href="#linearGradient3812"
       id="linearGradient3818"
       x1="247.60245"
       y1="97.700829"
       x2="289.37836"
       y2="39.888329"
       gradientUnits="userSpaceOnUse" />
  </defs>
  <sodipodi:namedview
     id="base"
     pagecolor="#ffffff"
     bordercolor="#666666"
     borderopacity="1.0"
     inkscape:pageopacity="0.0"
     inkscape:pageshadow="2"
     inkscape:zoom="1.8101934"
     inkscape:cx="171.49042"
     inkscape:cy="92.353321"
     inkscape:document-units="mm"
     inkscape:current-layer="g6057"
     showgrid="true"
     units="mm"
     inkscape:window-width="1307"
     inkscape:window-height="744"
     inkscape:window-x="59"
     inkscape:window-y="24"
     inkscape:window-maximized="1"
     objecttolerance="20"
     fit-margin-top="0.5"
     fit-margin-left="0.5"
     fit-margin-right="0.5"
     fit-margin-bottom="0.5"
     showguides="true"
     inkscape:guide-bbox="true">
    <inkscape:grid
       type="axonomgrid"
       id="grid3765"
       units="mm"
       empspacing="5"
       visible="true"
       enabled="false"
       snapvisiblegridlinesonly="true"
       originx="-81.620487mm"
       originy="-34.914401mm"
       gridanglex="60"
       gridanglez="60" />
  </sodipodi:namedview>
  <metadata
     id="metadata7">
    <rdf:RDF>
      <cc:Work
         rdf:about="">
        <dc:format>image/svg+xml</dc:format>
        <dc:type
           rdf:resource="http://purl.org/dc/dcmitype/StillImage" />
        <dc:title></dc:title>
      </cc:Work>
    </rdf:RDF>
  </metadata>
  <g
     inkscape:label="Calque 1"
     inkscape:groupmode="layer"
     id="layer1"
     transform="translate(-379.49262,89.309859)">
    <g
       id="g6120"
       transform="matrix(5,0,0,5,-663.22285,-418.11018)">
      <g
         id="g6057">
        <text
           xml:space="preserve"
           style="font-size:40px;font-style:normal;font-variant:normal;font-weight:normal;font-stretch:normal;text-align:center;line-height:125%;letter-spacing:0px;word-spacing:0px;writing-mode:lr-tb;text-anchor:middle;fill:#000000;fill-opacity:1;stroke:none;font-family:Nimbus Roman No9 L;-inkscape-font-specification:Nimbus Roman No9 L"
           x="-282.8125"
           y="-580.22882"
           id="text3073"
           sodipodi:linespacing="125%"
           transform="matrix(0.2,0,0,0.2,150.34748,86.811009)"><tspan
             sodipodi:role="line"
             id="tspan3075"
             x="-282.8125"
             y="-580.22882" /></text>
        <path
           style="fill:url(#linearGradient3802);fill-opacity:1"
           d="M 170.8125 94.96875 C 170.78181 95.234261 170.78208 95.483388 170.75 95.75 C 168.29825 116.1275 162.1205 135.98484 154.84375 146.78125 C 153.78775 148.3479 153.4625 149.38475 153.5625 150.9375 C 153.654 152.34163 154.06125 153.24512 155 154.09375 C 156.44165 155.39612 158.47365 155.59138 160.40625 154.625 C 161.53625 154.05999 162.006 153.53001 163.875 150.40625 C 171.88068 137.02554 177.5877 117.11483 180.09375 95.78125 C 177.0107 95.473582 173.9053 95.258867 170.8125 94.96875 z "
           id="path3005"
           transform="matrix(0.2,0,0,0.2,208.54309,65.760064)" />
        <path
           style="fill:url(#linearGradient3802);fill-opacity:1"
           d="M 87.5 89.375 C 83.838738 98.182972 80.743996 107.23991 78.875 115.8125 C 74.73725 134.79192 76.3485 149.80494 82.96875 154.03125 C 87.02285 156.61935 91.61925 156.94502 96.21875 155 C 99.7471 153.50795 103.6125 149.74712 106.5625 144.96875 C 113.4906 133.74638 117.94625 115.59679 119.0625 93.875 C 119.10479 93.052155 119.03854 91.936831 119.0625 91.03125 C 115.91384 90.847537 112.78796 90.691884 109.65625 90.53125 C 109.47269 97.430619 108.87807 104.49162 107.875 111.03125 C 105.0511 129.4418 98.95625 144.17736 92.96875 147.125 C 91.76025 147.71975 90.335 147.9244 89.625 147.625 C 88.04585 146.95924 86.9225 144.49566 86.28125 140.21875 C 85.87725 137.51945 85.87225 131.06959 86.28125 127.6875 C 87.650217 116.35809 91.552845 103.22991 97.3125 89.84375 C 94.838149 89.740693 92.270157 89.524863 89.8125 89.4375 C 89.031882 89.409751 88.278792 89.401141 87.5 89.375 z "
           id="path3003"
           transform="matrix(0.2,0,0,0.2,208.54309,65.760064)" />
        <path
           style="fill:url(#linearGradient3802);fill-opacity:1"
           d="M 12.59375 89.8125 C 9.8191868 97.207981 7.5466965 104.72181 6.03125 112.09375 C 4.71165 118.51631 4.15125 123.65153 4.15625 129.46875 C 4.16125 134.06948 4.30375 135.64203 5 139.09375 C 6.98635 148.94792 12.54215 155.40313 20.1875 156.6875 C 25.05715 157.50554 29.816 156.36236 34.40625 153.3125 C 36.16665 152.14288 39.59765 148.86877 41.15625 146.875 C 43.53075 143.83745 45.48485 140.65033 47.5 136.46875 C 53.484979 124.04963 57.10249 107.76265 58.21875 88.8125 C 55.033724 88.793159 51.851755 88.768276 48.71875 88.78125 C 48.112672 99.708405 46.557493 109.77381 43.96875 119.3125 C 39.74225 134.8858 32.992 145.70875 26.21875 147.8125 C 24.06635 148.48115 21.91235 148.35812 20.0625 147.46875 C 18.7134 146.82015 16.9425 144.94374 16.03125 143.15625 C 11.243 133.76857 13.03255 115.22636 20.71875 94.5625 C 21.382506 92.778017 22.18295 91.042896 22.90625 89.28125 C 22.682691 89.289474 22.441912 89.272824 22.21875 89.28125 C 18.911161 89.406131 15.810049 89.642599 12.59375 89.8125 z "
           id="path3001"
           transform="matrix(0.2,0,0,0.2,208.54309,65.760064)" />
        <path
           style="fill:url(#linearGradient3802);fill-opacity:1"
           d="M 26.3125 3.65625 C 24.400849 3.2609048 22.723753 3.1489026 21.65625 3.46875 C 21.516157 3.5107236 21.365217 3.6496353 21.21875 3.71875 L 26.3125 3.65625 z "
           id="path2999"
           transform="matrix(0.2,0,0,0.2,208.54309,65.760064)" />
        <path
           style="fill:url(#linearGradient3802);fill-opacity:1;opacity:0.75"
           d="M 26.3125 3.65625 L 21.21875 3.71875 C 20.339946 4.1334381 19.394321 4.9028571 18.96875 5.71875 C 18.60275 6.412775 18.53125 6.79175 18.53125 7.84375 C 18.53125 8.97441 18.58025 9.234625 19.03125 9.96875 C 19.63385 10.947565 20.8375 11.7886 22.0625 12.125 C 22.539 12.25575 23.6475 12.5675 24.53125 12.8125 C 27.53485 13.64565 31.10535 15.621165 33.46875 17.75 C 35.00935 19.137725 36.91375 21.351325 38.15625 23.21875 C 39.80885 25.70361 42.00125 30.113 42.78125 32.5 C 42.8575 32.73246 43.125 33.490125 43.375 34.1875 C 43.62375 34.884885 44.0475 36.207375 44.3125 37.125 L 44.8125 38.8125 L 41.875 41.71875 C 40.27375 43.31175 38.0775 45.6197 37 46.875 C 27.282136 58.190886 18.655352 73.655555 12.59375 89.8125 C 15.810049 89.642599 18.911161 89.406131 22.21875 89.28125 C 22.441912 89.272824 22.682691 89.289474 22.90625 89.28125 C 27.807637 77.343596 33.941623 65.961882 40.90625 56.34375 C 43.006 53.44395 46.6065 48.89985 47 48.65625 C 47.18875 48.539515 47.26375 49.024955 47.78125 54.3125 C 49.009724 66.848738 49.304814 78.214931 48.71875 88.78125 C 51.851755 88.768276 55.033724 88.793159 58.21875 88.8125 C 58.249687 88.287306 58.316749 87.810577 58.34375 87.28125 C 58.5885 82.491675 58.45225 69.23715 58.09375 63.875 C 57.59625 56.44569 56.79 49.643775 55.8125 44.84375 C 55.53725 43.48874 55.28125 42.22525 55.28125 42.03125 C 55.28125 41.435925 59.719 37.86215 62.90625 35.875 C 66.8325 33.42714 70.44485 31.938 74.46875 31.125 C 76.92685 30.62835 81.4376 30.6024 83.75 31.0625 C 87.0351 31.7161 89.88075 32.88314 92.625 34.71875 C 98.1575 38.419415 102.71925 45.504375 105.15625 54.21875 C 105.44 55.2345 105.6875 56.16125 105.6875 56.28125 C 105.6875 56.40135 105.07125 57.340875 104.34375 58.34375 C 97.963719 67.137473 92.210781 78.042179 87.5 89.375 C 88.278792 89.401141 89.031882 89.409751 89.8125 89.4375 C 92.270157 89.524863 94.838149 89.740693 97.3125 89.84375 C 98.839259 86.295372 100.42895 82.741857 102.21875 79.1875 C 104.41915 74.817625 108.0815 68.11875 108.375 67.9375 C 108.5275 67.843275 108.61625 68.343075 108.96875 71.46875 C 109.61233 77.182282 109.83585 83.78071 109.65625 90.53125 C 112.78796 90.691884 115.91384 90.847537 119.0625 91.03125 C 119.24179 84.254115 119.00424 75.787549 118.34375 70.5625 C 117.8745 66.84821 116.8425 61.548435 116.15625 59.34375 L 115.84375 58.34375 L 117.59375 56.03125 C 120.49885 52.142875 122.6559 49.650625 126.03125 46.28125 C 130.1379 42.18214 133.15835 39.73684 136.6875 37.71875 C 146.0371 32.372255 155.113 33.23533 161.65625 40.0625 C 170.39885 49.184657 173.75156 69.545275 170.8125 94.96875 C 173.9053 95.258867 177.0107 95.473582 180.09375 95.78125 C 180.42379 92.971681 180.91675 90.226014 181.125 87.375 C 181.451 82.92959 181.39225 71.182575 181.03125 67.34375 C 180.12515 57.719705 178.4045 50.63414 175.46875 44.3125 C 170.82115 34.30484 163.9475 28.16361 155.21875 26.28125 C 141.85415 23.39915 128.12635 29.729145 114.78125 44.90625 C 113.575 46.277815 112.55625 47.375 112.53125 47.375 C 112.50275 47.375 112.3085 46.924875 112.125 46.34375 C 110.81065 42.19989 108.28265 37.492975 105.40625 33.90625 C 100.4915 27.77764 94.4364 24.03707 86.78125 22.40625 C 84.7505 21.9741 84.375 21.9435 80.15625 21.9375 C 75.2049 21.930125 74.2179 22.048125 70.0625 23.125 C 64.9574 24.44801 59.3895 27.1631 54.03125 30.90625 L 52.6875 31.84375 L 52.46875 31.375 C 52.35875 31.11749 51.88875 29.833035 51.40625 28.53125 C 50.3951 25.80181 48.19325 21.31994 46.75 19 C 42.7824 12.62244 37.46375 7.795035 31.625 5.3125 C 29.758806 4.519038 27.955526 3.9960414 26.3125 3.65625 z "
           id="path3790"
           transform="matrix(0.2,0,0,0.2,208.54309,65.760064)" />
      </g>
      <g
         id="g6048" />
    </g>
  </g>
</svg>
