<?xml version="1.0" encoding="UTF-8" standalone="no"?>
<!-- Created with Inkscape (http://www.inkscape.org/) -->

<svg
   xmlns:dc="http://purl.org/dc/elements/1.1/"
   xmlns:cc="http://creativecommons.org/ns#"
   xmlns:rdf="http://www.w3.org/1999/02/22-rdf-syntax-ns#"
   xmlns:svg="http://www.w3.org/2000/svg"
   xmlns="http://www.w3.org/2000/svg"
   xmlns:xlink="http://www.w3.org/1999/xlink"
   xmlns:sodipodi="http://sodipodi.sourceforge.net/DTD/sodipodi-0.dtd"
   xmlns:inkscape="http://www.inkscape.org/namespaces/inkscape"
   width="1209.7933"
   height="745.59497"
   id="svg2"
   version="1.1"
   inkscape:version="0.48.4 r9939"
   sodipodi:docname="M_bulb.svg"
   inkscape:export-filename="/home/raphael/Science/MLab/private/Logo/M_300.png"
   inkscape:export-xdpi="300"
   inkscape:export-ydpi="300">
  <defs
     id="defs4">
    <linearGradient
       id="linearGradient3815">
      <stop
         id="stop3817"
         offset="0"
         style="stop-color:#008066;stop-opacity:1;" />
      <stop
         id="stop3819"
         offset="1"
         style="stop-color:#ffff00;stop-opacity:0.39215687;" />
    </linearGradient>
    <linearGradient
       inkscape:collect="always"
       id="linearGradient3812">
      <stop
         style="stop-color:#216778;stop-opacity:1;"
         offset="0"
         id="stop3814" />
      <stop
         style="stop-color:#216778;stop-opacity:0;"
         offset="1"
         id="stop3816" />
    </linearGradient>
    <linearGradient
       id="linearGradient3796">
      <stop
         style="stop-color:#ebb700;stop-opacity:1;"
         offset="0"
         id="stop3798" />
      <stop
         style="stop-color:#ffff00;stop-opacity:0.39215687;"
         offset="1"
         id="stop3800" />
    </linearGradient>
    <linearGradient
       inkscape:collect="always"
       xlink:href="#linearGradient3812"
       id="linearGradient3818"
       x1="247.60245"
       y1="97.700829"
       x2="289.37836"
       y2="39.888329"
       gradientUnits="userSpaceOnUse" />
    <linearGradient
       inkscape:collect="always"
       xlink:href="#linearGradient3815"
       id="linearGradient3813"
       gradientUnits="userSpaceOnUse"
       gradientTransform="translate(109.6875,-16.25)"
       x1="211.1431"
       y1="76.696495"
       x2="281.26855"
       y2="95.479012" />
    <linearGradient
       inkscape:collect="always"
       xlink:href="#linearGradient3815"
       id="linearGradient3849"
       gradientUnits="userSpaceOnUse"
       gradientTransform="translate(109.6875,-16.25)"
       x1="211.1431"
       y1="76.696495"
       x2="281.26855"
       y2="95.479012" />
    <linearGradient
       inkscape:collect="always"
       xlink:href="#linearGradient3815"
       id="linearGradient3858"
       gradientUnits="userSpaceOnUse"
       gradientTransform="translate(109.6875,-16.25)"
       x1="211.1431"
       y1="76.696495"
       x2="281.26855"
       y2="95.479012" />
    <linearGradient
       inkscape:collect="always"
       xlink:href="#linearGradient3815"
       id="linearGradient3871"
       gradientUnits="userSpaceOnUse"
       gradientTransform="matrix(5,0,0,5,730.10765,-133.08327)"
       x1="211.1431"
       y1="76.696495"
       x2="281.26855"
       y2="95.479012" />
    <linearGradient
       inkscape:collect="always"
       xlink:href="#linearGradient3815"
       id="linearGradient3897"
       gradientUnits="userSpaceOnUse"
       gradientTransform="matrix(5,0,0,5,730.10765,-133.08327)"
       x1="211.1431"
       y1="76.696495"
       x2="281.26855"
       y2="95.479012" />
    <linearGradient
       inkscape:collect="always"
       xlink:href="#linearGradient3815"
       id="linearGradient3899"
       gradientUnits="userSpaceOnUse"
       gradientTransform="matrix(5,0,0,5,730.10765,-133.08327)"
       x1="211.1431"
       y1="76.696495"
       x2="281.26855"
       y2="95.479012" />
    <linearGradient
       inkscape:collect="always"
       xlink:href="#linearGradient3815"
       id="linearGradient3901"
       gradientUnits="userSpaceOnUse"
       gradientTransform="matrix(5,0,0,5,730.10765,-133.08327)"
       x1="211.1431"
       y1="76.696495"
       x2="281.26855"
       y2="95.479012" />
    <linearGradient
       inkscape:collect="always"
       xlink:href="#linearGradient3815"
       id="linearGradient3903"
       gradientUnits="userSpaceOnUse"
       gradientTransform="matrix(5,0,0,5,730.10765,-133.08327)"
       x1="211.1431"
       y1="76.696495"
       x2="281.26855"
       y2="95.479012" />
    <linearGradient
       inkscape:collect="always"
       xlink:href="#linearGradient3815"
       id="linearGradient3905"
       gradientUnits="userSpaceOnUse"
       gradientTransform="matrix(5,0,0,5,730.10765,-133.08327)"
       x1="211.1431"
       y1="76.696495"
       x2="281.26855"
       y2="95.479012" />
  </defs>
  <sodipodi:namedview
     id="base"
     pagecolor="#ffffff"
     bordercolor="#666666"
     borderopacity="1.0"
     inkscape:pageopacity="0.0"
     inkscape:pageshadow="2"
     inkscape:zoom="0.32000001"
     inkscape:cx="1397.5592"
     inkscape:cy="722.75953"
     inkscape:document-units="mm"
     inkscape:current-layer="g6057"
     showgrid="true"
     units="mm"
     inkscape:window-width="1307"
     inkscape:window-height="744"
     inkscape:window-x="59"
     inkscape:window-y="24"
     inkscape:window-maximized="1"
     objecttolerance="20"
     fit-margin-top="0.5"
     fit-margin-left="0.5"
     fit-margin-right="0.5"
     fit-margin-bottom="0.5"
     showguides="true"
     inkscape:guide-bbox="true">
    <inkscape:grid
       type="axonomgrid"
       id="grid3765"
       units="mm"
       empspacing="5"
       visible="true"
       enabled="false"
       snapvisiblegridlinesonly="true"
       originx="-91.929351mm"
       originy="52.552003mm"
       gridanglex="60"
       gridanglez="60" />
  </sodipodi:namedview>
  <metadata
     id="metadata7">
    <rdf:RDF>
      <cc:Work
         rdf:about="">
        <dc:format>image/svg+xml</dc:format>
        <dc:type
           rdf:resource="http://purl.org/dc/dcmitype/StillImage" />
        <dc:title></dc:title>
      </cc:Work>
    </rdf:RDF>
  </metadata>
  <g
     inkscape:label="Calque 1"
     inkscape:groupmode="layer"
     id="layer1"
     transform="translate(-416.0201,366.27691)">
    <g
       id="g6120"
       transform="matrix(5,0,0,5,-663.22285,-418.11018)">
      <g
         id="g6057">
        <path
           inkscape:connector-curvature="0"
           id="path3100"
           d="m 216.20292,10.720985 241.25,0 0,148.410335 -241.25,0 z m 132.31787,111.380665 0,-6.28374 c 0,-3.09586 0.26908,-3.79838 1.88921,-4.41715 1.74871,-0.66784 3.74153,-2.28697 4.41304,-3.58551 0.28127,-0.54392 0.71469,-2.51452 0.96319,-4.3791 0.24849,-1.86461 0.63069,-4.138882 0.84933,-5.053967 0.72232,-3.023111 1.40985,-5.318745 1.70628,-5.697292 0.16073,-0.205212 0.51288,-1.116205 0.78259,-2.024371 0.2697,-0.908197 0.93846,-2.312538 1.48613,-3.120809 0.54767,-0.808271 0.99849,-1.644228 1.00183,-1.857659 0.003,-0.213432 0.73553,-1.486233 1.62712,-2.828448 5.85009,-8.806856 7.23064,-13.103136 7.14642,-22.239522 -0.0425,-4.628373 -0.16522,-5.85628 -0.78076,-7.819821 -0.40157,-1.281122 -0.8063,-2.890842 -0.89941,-3.577156 -0.0932,-0.686315 -0.28704,-1.247844 -0.43097,-1.247844 -0.14392,0 -0.51163,-0.624722 -0.81715,-1.38827 -1.23881,-3.096118 -6.28069,-9.620184 -8.82779,-11.422937 -0.77576,-0.549052 -1.94413,-1.480077 -2.59638,-2.068927 -2.71458,-2.450734 -9.68506,-5.175394 -14.72122,-5.754361 -3.71582,-0.427163 -8.18408,-0.415549 -10.37441,0.02696 -7.539,1.523103 -13.34777,4.677621 -18.72981,10.171432 -3.80412,3.883093 -5.96694,7.423479 -7.66155,12.541507 -1.53516,4.636392 -1.94973,7.578437 -1.71971,12.203215 0.37216,7.481846 1.6571,11.552715 5.71667,18.11122 0.36603,0.591346 0.965,1.568824 1.33103,2.172182 0.36604,0.603358 1.00244,1.511556 1.41422,2.018214 0.41179,0.506659 0.74871,1.066559 0.74871,1.244218 0,0.17766 0.27276,0.680158 0.60613,1.116605 0.79199,1.036909 3.18399,6.611815 3.8385,8.946183 1.14754,4.092796 1.54542,5.931158 1.55317,7.176138 0.0231,3.72696 1.74173,6.75217 4.54477,8.00019 1.63795,0.72926 1.73598,0.8444 1.95346,2.29466 0.126,0.83979 0.30319,2.13911 0.18413,2.88735 l 0,5.78437 c 0.019,0.7179 3.64109,2.1516 7.09132,2.86146 1.94888,1.40671 3.61643,1.46569 4.86408,1.46102 1.24765,-0.005 2.37101,-0.0384 4.5754,-1.16763 4.58495,-0.48885 7.27243,-1.85241 7.27243,-3.08241 z"
           style="fill:#ffe22b;fill-opacity:1"
           sodipodi:nodetypes="ccccccsscsscsscssssssssssssssssscssssccczcc" />
        <text
           xml:space="preserve"
           style="font-size:40px;font-style:normal;font-variant:normal;font-weight:normal;font-stretch:normal;text-align:center;line-height:125%;letter-spacing:0px;word-spacing:0px;writing-mode:lr-tb;text-anchor:middle;fill:#000000;fill-opacity:1;stroke:none;font-family:Nimbus Roman No9 L;-inkscape-font-specification:Nimbus Roman No9 L"
           x="-282.8125"
           y="-580.22882"
           id="text3073"
           sodipodi:linespacing="125%"
           transform="matrix(0.2,0,0,0.2,150.34748,86.811009)"><tspan
             sodipodi:role="line"
             id="tspan3075"
             x="-282.8125"
             y="-580.22882" /></text>
        <g
           id="g3808">
          <path
             style="fill:url(#linearGradient3813);fill-opacity:1.0"
             d="m 322.26934,80.845545 c -1.52907,-0.256873 -2.64147,-1.543322 -3.03874,-3.514157 -0.13925,-0.690345 -0.16675,-1.007175 -0.16775,-1.927322 -0.001,-1.163445 0.109,-2.188529 0.37292,-3.473041 0.96525,-4.695494 3.36457,-9.745371 6.19777,-13.044467 0.2155,-0.25106 0.65403,-0.717145 0.97428,-1.035745 l 0.5823,-0.579275 -0.0962,-0.33367 c -0.053,-0.183525 -0.13725,-0.447785 -0.187,-0.587262 -0.05,-0.139475 -0.10325,-0.291635 -0.1185,-0.338127 -0.156,-0.4774 -0.59838,-1.36287 -0.9289,-1.859842 -0.2485,-0.373485 -0.62648,-0.815738 -0.9346,-1.093283 -0.47268,-0.425767 -1.18798,-0.820539 -1.7887,-0.987169 -0.17675,-0.049 -0.39918,-0.110525 -0.49448,-0.136675 -0.245,-0.06728 -0.48292,-0.238575 -0.60344,-0.434338 -0.0902,-0.146825 -0.1025,-0.196525 -0.1025,-0.422657 0,-0.2104 0.015,-0.286535 0.0882,-0.42534 0.0993,-0.190375 0.33994,-0.393327 0.53607,-0.45209 0.397,-0.11895 1.18667,0.02818 1.99417,0.37151 1.16775,0.496507 2.23493,1.460712 3.02845,2.736224 0.28865,0.463988 0.72575,1.363182 0.92798,1.90907 0.0965,0.260357 0.19325,0.515515 0.21525,0.567017 l 0.04,0.09365 0.2705,-0.188975 c 1.07165,-0.74863 2.1843,-1.287362 3.20532,-1.551964 0.83108,-0.215375 1.02848,-0.23855 2.01875,-0.237075 0.84375,0.0012 0.9212,0.0068 1.32735,0.09323 1.53103,0.326164 2.7403,1.072634 3.72325,2.298356 0.57528,0.717345 1.08403,1.655798 1.3469,2.48457 0.0367,0.116225 0.0718,0.211325 0.0775,0.211325 0.005,0 0.20775,-0.224425 0.449,-0.498738 2.66902,-3.035421 5.414,-4.298986 8.08692,-3.722566 1.74575,0.376472 3.12378,1.601389 4.0533,3.602921 0.58715,1.264328 0.92913,2.683665 1.11035,4.608474 0.0722,0.767765 0.0827,3.117532 0.0175,4.006614 -0.3579,4.899859 -1.63785,9.576593 -3.44985,12.605175 -0.3738,0.624752 -0.46315,0.734657 -0.68915,0.847659 -0.38652,0.193275 -0.79367,0.152725 -1.082,-0.10775 -0.18775,-0.169725 -0.27067,-0.350687 -0.28897,-0.631512 -0.02,-0.31055 0.0443,-0.52144 0.2555,-0.83477 1.45535,-2.159282 2.6944,-6.129581 3.18475,-10.20508 0.62075,-5.159101 -0.056,-9.294147 -1.82278,-11.137632 -1.30865,-1.365434 -3.1196,-1.534154 -4.98952,-0.464855 -0.70583,0.403618 -1.3127,0.88981 -2.13403,1.709632 -0.67507,0.673875 -1.10922,1.175555 -1.69024,1.95323 l -0.3458,0.462835 0.0613,0.19715 c 0.13725,0.440937 0.34372,1.498689 0.43757,2.241547 0.14975,1.184647 0.21275,3.269989 0.141,4.666151 -0.22325,4.344359 -1.1096,7.974413 -2.49522,10.218887 -0.59,0.955675 -1.36703,1.707762 -2.0727,2.006172 -0.9199,0.389003 -1.83608,0.32092 -2.6469,-0.1967 -1.32405,-0.845262 -1.64533,-3.848486 -0.81778,-7.64437 0.85475,-3.920509 2.8259,-8.368638 5.09363,-11.494295 0.1455,-0.200575 0.26457,-0.384322 0.26457,-0.408342 0,-0.024 -0.0465,-0.209875 -0.10325,-0.413025 -0.4874,-1.742875 -1.39847,-3.162139 -2.50497,-3.902272 -0.54885,-0.367122 -1.11773,-0.601987 -1.77475,-0.732707 -0.46248,-0.09202 -1.36853,-0.08508 -1.86015,0.01425 -0.80478,0.1626 -1.5262,0.458523 -2.31145,0.948095 -0.63745,0.39743 -1.52158,1.113797 -1.52158,1.232862 0,0.0388 0.0452,0.292288 0.10025,0.56329 0.1955,0.960005 0.35968,2.320517 0.45918,3.806379 0.0717,1.07243 0.10175,3.725144 0.0528,4.683059 -0.20025,3.925721 -0.94243,7.286373 -2.1726,9.839035 -0.40303,0.836317 -0.78983,1.472434 -1.26473,2.079944 -0.31172,0.398755 -0.99887,1.053692 -1.35095,1.287615 -0.91805,0.609972 -1.87087,0.834765 -2.8448,0.671157 z m 1.20653,-1.770917 c 1.35465,-0.42075 2.70117,-2.584665 3.54647,-5.699326 1.0184,-3.752479 1.26143,-7.900868 0.76165,-13.000985 -0.1035,-1.057509 -0.11675,-1.153754 -0.1545,-1.130407 -0.0787,0.04872 -0.79882,0.9562 -1.21877,1.53616 -1.59848,2.207497 -3.00225,4.866291 -4.03458,7.64167 -1.53724,4.132772 -1.89509,7.843618 -0.93744,9.721155 0.18225,0.357498 0.5316,0.733825 0.80142,0.863545 0.36997,0.177875 0.80532,0.2019 1.2358,0.06817 z m 13.35132,-0.141425 c 1.1975,-0.589528 2.4117,-3.532604 2.97648,-7.214713 0.3969,-2.587637 0.48102,-5.601567 0.22075,-7.912173 -0.0705,-0.625135 -0.0875,-0.72844 -0.118,-0.709595 -0.0587,0.03625 -0.7917,1.374097 -1.23178,2.248072 -1.70835,3.392614 -2.8393,6.837728 -3.18567,9.704247 -0.0818,0.676418 -0.0828,1.96365 -0.002,2.50351 0.12825,0.855382 0.3509,1.351184 0.66673,1.484337 0.142,0.05988 0.43152,0.01525 0.67322,-0.1037 z"
             id="path3790"
             inkscape:connector-curvature="0" />
          <path
             sodipodi:nodetypes="ccccc"
             inkscape:connector-curvature="0"
             id="rect3820"
             d="m 318.99611,50.295232 35.71104,-0.430837 0.8469,18.915393 C 342.66207,67.4393 329.1336,66.834922 318.58492,67.589104 z"
             style="opacity:0.2;fill:#ffffff;fill-opacity:1;fill-rule:nonzero;stroke:none" />
        </g>
        <text
           sodipodi:linespacing="125%"
           id="text3798"
           y="143.11128"
           x="336.67593"
           style="font-size:8px;font-style:normal;font-variant:normal;font-weight:normal;font-stretch:normal;text-align:center;line-height:125%;letter-spacing:0px;word-spacing:0px;writing-mode:lr-tb;text-anchor:middle;fill:#008066;fill-opacity:1;stroke:none;font-family:Nimbus Sans L;-inkscape-font-specification:Nimbus Sans L"
           xml:space="preserve"><tspan
             y="143.11128"
             x="336.67593"
             id="tspan3800"
             sodipodi:role="line"
             style="font-weight:bold;-inkscape-font-specification:Nimbus Sans L Bold;fill:#008066">Bright ideas</tspan></text>
        <g
           id="g3839"
           transform="translate(252.18262,0)" />
        <g
           id="g3887"
           transform="translate(-48,0)">
          <path
             sodipodi:nodetypes="csscsscsscssssssssssssssssscssssccczcc"
             style="fill:#ffe22b;fill-opacity:1"
             d="m 600.98222,121.973 0,-6.28374 c 0,-3.09586 0.26908,-3.79839 1.88921,-4.41716 1.74871,-0.66784 3.74153,-2.28697 4.41304,-3.58551 0.28127,-0.54392 0.71469,-2.51452 0.96319,-4.3791 0.24849,-1.86461 0.63069,-4.138878 0.84933,-5.053964 0.72232,-3.023112 1.40985,-5.318746 1.70628,-5.697292 0.16073,-0.205212 0.51288,-1.116204 0.78259,-2.024372 0.2697,-0.908196 0.93846,-2.312538 1.48613,-3.120808 0.54767,-0.808272 0.99849,-1.644228 1.00183,-1.857658 0.003,-0.213434 0.73553,-1.486234 1.62712,-2.828448 5.85009,-8.806856 7.23064,-13.103136 7.14642,-22.239522 -0.0425,-4.628374 -0.16522,-5.85628 -0.78076,-7.819822 -0.40157,-1.281122 -0.8063,-2.890842 -0.89941,-3.577156 -0.0932,-0.686314 -0.28704,-1.247844 -0.43097,-1.247844 -0.14392,0 -0.51163,-0.624722 -0.81715,-1.38827 -1.23881,-3.096118 -6.28069,-9.620184 -8.82779,-11.422936 -0.77576,-0.549052 -1.94413,-1.480078 -2.59638,-2.068928 -2.71458,-2.450734 -9.68506,-5.175394 -14.72122,-5.754361 -3.71582,-0.427163 -8.18408,-0.415549 -10.37441,0.02696 -7.539,1.523103 -13.34777,4.677621 -18.72981,10.171433 -3.80412,3.883092 -5.96694,7.423478 -7.66155,12.541506 -1.53516,4.636392 -1.94973,7.578438 -1.71971,12.203214 0.37216,7.481848 1.6571,11.552716 5.71667,18.11122 0.36603,0.591348 0.965,1.568826 1.33103,2.172184 0.36604,0.603358 1.00244,1.511556 1.41422,2.018214 0.41179,0.506658 0.74871,1.066558 0.74871,1.244218 0,0.17766 0.27276,0.680158 0.60613,1.116604 0.79199,1.03691 3.18399,6.611816 3.8385,8.946184 1.14754,4.092796 1.54542,5.931154 1.55317,7.176134 0.0231,3.72696 1.74173,6.75217 4.54477,8.00019 1.63795,0.72926 1.73598,0.8444 1.95346,2.29467 0.126,0.83979 0.30319,2.13911 0.18413,2.88735 l 0,5.78437 c 0.019,0.7179 3.64109,2.1516 7.09132,2.86146 1.94888,1.40671 3.61643,1.46569 4.86408,1.46102 1.24765,-0.005 2.37101,-0.0384 4.5754,-1.16763 4.58495,-0.48885 7.27243,-1.85241 7.27243,-3.08241 z"
             id="path3100-5"
             inkscape:connector-curvature="0" />
          <path
             transform="matrix(0.2,0,0,0.2,215.84859,10.366654)"
             id="path3880"
             d="m 1943.6562,290.6875 c -0.031,0.2656 -0.03,0.51455 -0.062,0.78125 -2.4518,20.37749 -8.6608,40.23484 -15.9376,51.03125 -1.0559,1.56665 -1.3812,2.6035 -1.2812,4.15625 0.091,1.40412 0.4988,2.30763 1.4375,3.15625 1.4417,1.30238 3.5049,1.49763 5.4375,0.53125 1.13,-0.56501 1.5685,-1.09499 3.4375,-4.21875 8.0057,-13.38071 13.7127,-33.29142 16.2187,-54.625 -3.0727,-0.30664 -6.1675,-0.52329 -9.25,-0.8125 z"
             style="fill:url(#linearGradient3897);fill-opacity:1"
             inkscape:connector-curvature="0" />
          <path
             transform="matrix(0.2,0,0,0.2,215.84859,10.366654)"
             id="path3878"
             d="m 1860.3125,285.09375 c -3.6608,8.80715 -6.7249,17.86577 -8.5937,26.4375 -4.1378,18.97942 -2.5265,33.99244 4.0937,38.21875 4.0541,2.5881 8.6192,2.91377 13.2187,0.96875 3.5284,-1.49205 7.4251,-5.25288 10.375,-10.03125 6.9282,-11.22237 11.3525,-29.37196 12.4688,-51.09375 0.042,-0.82285 -0.024,-1.93817 0,-2.84375 -3.1487,-0.18371 -6.2745,-0.33937 -9.4062,-0.5 -0.1836,6.89937 -0.7782,13.96037 -1.7813,20.5 -2.8239,18.41055 -8.8875,33.14611 -14.875,36.09375 -1.2085,0.59475 -2.665,0.7994 -3.375,0.5 -1.5791,-0.66576 -2.7025,-3.12934 -3.3437,-7.40625 -0.4041,-2.6993 -0.3778,-9.14916 0.031,-12.53125 1.369,-11.32941 5.2403,-24.45759 11,-37.84375 -2.4744,-0.10306 -5.0423,-0.31889 -7.5,-0.40625 -0.7806,-0.0278 -1.5337,-0.0364 -2.3125,-0.0625 z"
             style="fill:url(#linearGradient3899);fill-opacity:1"
             inkscape:connector-curvature="0" />
          <path
             transform="matrix(0.2,0,0,0.2,215.84859,10.366654)"
             id="path3876"
             d="m 1785.4375,285.53125 c -2.7731,7.39287 -5.0789,14.91202 -6.5937,22.28125 -1.3196,6.42256 -1.8488,11.55778 -1.8438,17.375 0.01,4.60073 0.1163,6.17328 0.8125,9.625 1.9837,9.8412 7.5577,16.29754 15.1875,17.59375 l 0.031,0 c 4.8589,0.80806 9.6383,-0.33163 14.2188,-3.375 1.7604,-1.16962 5.1914,-4.44373 6.75,-6.4375 2.3745,-3.03755 4.2973,-6.22467 6.3125,-10.40625 5.985,-12.41912 9.6337,-28.7061 10.75,-47.65625 -3.1957,-0.0195 -6.3879,-0.0443 -9.5313,-0.0312 -0.606,10.92716 -2.1612,20.99256 -4.75,30.53125 -4.2265,15.5733 -10.9455,26.39625 -17.7187,28.5 -2.1524,0.66865 -4.3376,0.54563 -6.1875,-0.34375 -1.3491,-0.6486 -3.0887,-2.52501 -4,-4.3125 -4.7882,-9.38769 -2.9987,-27.92989 4.6875,-48.59375 0.6664,-1.79172 1.4298,-3.54381 2.1563,-5.3125 -0.2238,0.008 -0.4642,0.0228 -0.6876,0.0312 -3.2968,0.12448 -6.3875,0.36205 -9.5937,0.53125 z"
             style="fill:url(#linearGradient3901);fill-opacity:1"
             inkscape:connector-curvature="0" />
          <path
             transform="matrix(0.2,0,0,0.2,215.84859,10.366654)"
             id="path3874"
             d="m 1799.2188,199.375 c -1.949,-0.41145 -3.6664,-0.51218 -4.75,-0.1875 -0.1477,0.0442 -0.3142,0.17576 -0.4688,0.25 l 5.2188,-0.0625 z"
             style="fill:url(#linearGradient3903);fill-opacity:1"
             inkscape:connector-curvature="0" />
          <path
             transform="matrix(0.2,0,0,0.2,215.84859,10.366654)"
             id="path3841"
             d="M 1799.2188,199.375 1794,199.4375 c -0.872,0.41889 -1.797,1.19143 -2.2188,2 -0.366,0.69403 -0.4374,1.073 -0.4374,2.125 -1e-4,1.13066 0.08,1.39087 0.5312,2.125 0.6026,0.97882 1.775,1.81985 3,2.15625 0.4765,0.13075 1.585,0.4425 2.4688,0.6875 3.0035,0.83315 6.5741,2.80867 8.9374,4.9375 1.5407,1.38773 3.4451,3.60132 4.6876,5.46875 1.6525,2.48486 3.8762,6.89425 4.6562,9.28125 0.076,0.23246 0.3438,0.99013 0.5938,1.6875 0.2487,0.69738 0.6412,2.01988 0.9062,2.9375 l 0.5,1.6875 -2.9062,2.875 c -1.6013,1.593 -3.7975,3.9322 -4.875,5.1875 -9.7196,11.31779 -18.3446,26.77759 -24.4063,42.9375 3.2062,-0.1692 6.2969,-0.40677 9.5937,-0.53125 0.2234,-0.008 0.4638,-0.023 0.6876,-0.0312 4.9,-11.92978 11.0395,-23.29388 18,-32.90625 2.0997,-2.8998 5.7002,-7.4439 6.0937,-7.6875 0.1888,-0.11674 0.2638,0.3687 0.7813,5.65625 1.2284,12.53624 1.5235,23.90243 0.9374,34.46875 3.1434,-0.013 6.3356,0.0117 9.5313,0.0312 0.031,-0.52519 0.098,-1.00192 0.125,-1.53125 0.2447,-4.78958 0.077,-18.0441 -0.2813,-23.40625 -0.4975,-7.42931 -1.3037,-14.23122 -2.2812,-19.03125 -0.2752,-1.35501 -0.5,-2.6185 -0.5,-2.8125 0,-0.59533 4.4065,-4.20035 7.5938,-6.1875 3.9262,-2.44786 7.5385,-3.90575 11.5624,-4.71875 2.4581,-0.49665 7.0001,-0.5226 9.3126,-0.0625 3.285,0.6536 6.1307,1.82064 8.875,3.65625 5.5325,3.70067 10.063,10.78563 12.5,19.5 0.2837,1.01575 0.5312,1.9425 0.5312,2.0625 0,0.1201 -0.585,1.05962 -1.3125,2.0625 -6.3805,8.79441 -12.164,19.69748 -16.875,31.03125 0.7788,0.0261 1.5319,0.0347 2.3125,0.0625 2.4577,0.0874 5.0256,0.30319 7.5,0.40625 1.5268,-3.54838 3.1165,-7.10189 4.9062,-10.65625 2.2004,-4.36987 5.8628,-11.06875 6.1563,-11.25 0.1525,-0.0942 0.2413,0.40557 0.5937,3.53125 0.6436,5.71353 0.8672,12.31196 0.6876,19.0625 3.1317,0.16063 6.2575,0.31629 9.4062,0.5 0.1793,-6.77713 -0.058,-15.2437 -0.7188,-20.46875 -0.4692,-3.71429 -1.5012,-9.01407 -2.1874,-11.21875 l -0.2813,-1 1.7187,-2.3125 c 2.9052,-3.88838 5.0622,-6.38063 8.4376,-9.75 4.1066,-4.09911 7.1583,-6.54441 10.6874,-8.5625 9.3497,-5.3465 18.3943,-4.48342 24.9376,2.34375 8.7425,9.12213 12.1265,29.4829 9.1874,54.90625 3.0825,0.28921 6.1773,0.50586 9.25,0.8125 0.3301,-2.80957 0.8231,-5.55524 1.0313,-8.40625 0.326,-4.44541 0.2673,-16.19243 -0.094,-20.03125 -0.9062,-9.62405 -2.6268,-16.74086 -5.5626,-23.0625 -4.6476,-10.00766 -11.5212,-16.11764 -20.25,-18 -13.3645,-2.8821 -27.0924,3.4479 -40.4374,18.625 -1.2063,1.37157 -2.225,2.46875 -2.25,2.46875 -0.029,0 -0.1916,-0.45013 -0.375,-1.03125 -1.3144,-4.14386 -3.8736,-8.85077 -6.75,-12.4375 -4.9148,-6.12861 -10.9699,-9.86918 -18.625,-11.5 -2.0308,-0.43215 -2.4063,-0.46275 -6.625,-0.46875 -4.9514,-0.007 -5.9384,0.11062 -10.0938,1.1875 -5.1051,1.32301 -10.673,4.0381 -16.0312,7.78125 l -1.3438,0.9375 -0.1875,-0.46875 c -0.11,-0.25751 -0.6112,-1.54197 -1.0937,-2.84375 -1.0112,-2.72944 -3.1818,-7.21131 -4.625,-9.53125 -3.9676,-6.37756 -9.3175,-11.20496 -15.1563,-13.6875 -1.8334,-0.7795 -3.5976,-1.31401 -5.2187,-1.65625 z"
             style="opacity:0.65;fill:url(#linearGradient3905);fill-opacity:1"
             inkscape:connector-curvature="0" />
          <text
             sodipodi:linespacing="125%"
             id="text3845"
             y="143.11128"
             x="588.85858"
             style="font-size:8px;font-style:normal;font-variant:normal;font-weight:normal;font-stretch:normal;text-align:center;line-height:125%;letter-spacing:0px;word-spacing:0px;writing-mode:lr-tb;text-anchor:middle;fill:#008066;fill-opacity:1;stroke:none;font-family:Nimbus Sans L;-inkscape-font-specification:Nimbus Sans L"
             xml:space="preserve"><tspan
               y="143.11128"
               x="588.85858"
               id="tspan3847"
               sodipodi:role="line"
               style="font-weight:bold;fill:#008066;-inkscape-font-specification:Nimbus Sans L Bold">Bright ideas</tspan></text>
        </g>
      </g>
      <g
         id="g6048" />
    </g>
  </g>
</svg>
