<?xml version="1.0" encoding="UTF-8" standalone="no"?>
<!-- Created with Inkscape (http://www.inkscape.org/) -->

<svg
   xmlns:dc="http://purl.org/dc/elements/1.1/"
   xmlns:cc="http://creativecommons.org/ns#"
   xmlns:rdf="http://www.w3.org/1999/02/22-rdf-syntax-ns#"
   xmlns:svg="http://www.w3.org/2000/svg"
   xmlns="http://www.w3.org/2000/svg"
   xmlns:xlink="http://www.w3.org/1999/xlink"
   xmlns:sodipodi="http://sodipodi.sourceforge.net/DTD/sodipodi-0.dtd"
   xmlns:inkscape="http://www.inkscape.org/namespaces/inkscape"
   width="346.52713"
   height="180.25734"
   id="svg2"
   version="1.1"
   inkscape:version="0.48.4 r9939"
   sodipodi:docname="MLab.svg"
   inkscape:export-filename="/home/raphael/Science/MLab/private/Logo/logo.png"
   inkscape:export-xdpi="63.74902"
   inkscape:export-ydpi="63.74902">
  <defs
     id="defs4">
    <linearGradient
       inkscape:collect="always"
       id="linearGradient3812">
      <stop
         style="stop-color:#216778;stop-opacity:1;"
         offset="0"
         id="stop3814" />
      <stop
         style="stop-color:#216778;stop-opacity:0;"
         offset="1"
         id="stop3816" />
    </linearGradient>
    <linearGradient
       id="linearGradient3796">
      <stop
         style="stop-color:#10283d;stop-opacity:1;"
         offset="0"
         id="stop3798" />
      <stop
         style="stop-color:#0b2155;stop-opacity:0.39215687;"
         offset="1"
         id="stop3800" />
    </linearGradient>
    <linearGradient
       inkscape:collect="always"
       xlink:href="#linearGradient3796"
       id="linearGradient3802"
       x1="211.1431"
       y1="76.696495"
       x2="281.26855"
       y2="95.479012"
       gradientUnits="userSpaceOnUse" />
    <linearGradient
       inkscape:collect="always"
       xlink:href="#linearGradient3812"
       id="linearGradient3818"
       x1="247.60245"
       y1="97.700829"
       x2="289.37836"
       y2="39.888329"
       gradientUnits="userSpaceOnUse"
       gradientTransform="matrix(5,0,0,5,-1045.1051,-307.25062)" />
    <linearGradient
       inkscape:collect="always"
       xlink:href="#linearGradient3796"
       id="linearGradient3009"
       gradientUnits="userSpaceOnUse"
       x1="211.1431"
       y1="76.696495"
       x2="281.26855"
       y2="95.479012"
       gradientTransform="matrix(5,0,0,5,-1045.1051,-307.25062)" />
  </defs>
  <sodipodi:namedview
     id="base"
     pagecolor="#ffffff"
     bordercolor="#666666"
     borderopacity="1.0"
     inkscape:pageopacity="0.0"
     inkscape:pageshadow="2"
     inkscape:zoom="0.90509668"
     inkscape:cx="-34.307463"
     inkscape:cy="175.34199"
     inkscape:document-units="mm"
     inkscape:current-layer="g6057"
     showgrid="true"
     units="mm"
     inkscape:window-width="1307"
     inkscape:window-height="744"
     inkscape:window-x="59"
     inkscape:window-y="24"
     inkscape:window-maximized="1"
     objecttolerance="20"
     fit-margin-top="0.5"
     fit-margin-left="0.5"
     fit-margin-right="0.5"
     fit-margin-bottom="0.5"
     showguides="true"
     inkscape:guide-bbox="true">
    <inkscape:grid
       type="axonomgrid"
       id="grid3765"
       units="mm"
       empspacing="5"
       visible="true"
       enabled="false"
       snapvisiblegridlinesonly="true"
       originx="-82.294885mm"
       originy="-34.914403mm"
       gridanglex="60"
       gridanglez="60" />
  </sodipodi:namedview>
  <metadata
     id="metadata7">
    <rdf:RDF>
      <cc:Work
         rdf:about="">
        <dc:format>image/svg+xml</dc:format>
        <dc:type
           rdf:resource="http://purl.org/dc/dcmitype/StillImage" />
        <dc:title />
      </cc:Work>
    </rdf:RDF>
  </metadata>
  <g
     inkscape:label="Calque 1"
     inkscape:groupmode="layer"
     id="layer1"
     transform="translate(-381.88221,110.85956)">
    <g
       id="g6120"
       transform="matrix(5,0,0,5,-663.22285,-418.11018)">
      <g
         id="g6057">
        <text
           xml:space="preserve"
           style="font-size:40px;font-style:normal;font-variant:normal;font-weight:normal;font-stretch:normal;text-align:center;line-height:125%;letter-spacing:0px;word-spacing:0px;writing-mode:lr-tb;text-anchor:middle;fill:#000000;fill-opacity:1;stroke:none;font-family:Nimbus Roman No9 L;-inkscape-font-specification:Nimbus Roman No9 L"
           x="-282.8125"
           y="-580.22882"
           id="text3073"
           sodipodi:linespacing="125%"
           transform="matrix(0.2,0,0,0.2,150.34748,86.811009)"><tspan
             sodipodi:role="line"
             id="tspan3075"
             x="-282.8125"
             y="-580.22882" /></text>
        <path
           style="fill:url(#linearGradient3009);fill-opacity:1"
           d="M 168.4375 116.5 C 168.4067 116.76647 168.4072 117.01367 168.375 117.28125 C 165.92325 137.65875 159.71425 157.51609 152.4375 168.3125 C 151.3815 169.87915 151.05625 170.94725 151.15625 172.5 C 151.24775 173.90412 151.68625 174.80762 152.625 175.65625 C 154.06665 176.95862 156.09865 177.15388 158.03125 176.1875 C 159.16125 175.62249 159.59975 175.06126 161.46875 171.9375 C 169.48083 158.54608 175.21617 138.63433 177.71875 117.28125 C 174.63837 116.97385 171.52762 116.78988 168.4375 116.5 z "
           id="path3016"
           transform="matrix(0.2,0,0,0.2,209.02101,61.450124)" />
        <path
           style="fill:url(#linearGradient3009);fill-opacity:1"
           d="M 85.125 110.9375 C 81.463738 119.74547 78.368996 128.77116 76.5 137.34375 C 72.36225 156.32317 73.9735 171.33619 80.59375 175.5625 C 84.64785 178.1506 89.213 178.50752 93.8125 176.5625 C 97.34085 175.07045 101.2375 171.30962 104.1875 166.53125 C 111.1156 155.30888 115.54 137.15929 116.65625 115.4375 C 116.699 114.60561 116.63223 113.47881 116.65625 112.5625 C 113.50481 112.37861 110.38447 112.22326 107.25 112.0625 C 107.06646 118.96209 106.47185 126.0539 105.46875 132.59375 C 102.64485 151.0043 96.58125 165.70861 90.59375 168.65625 C 89.38525 169.251 87.92875 169.4869 87.21875 169.1875 C 85.6396 168.52174 84.5475 166.02691 83.90625 161.75 C 83.50225 159.0507 83.49725 152.63209 83.90625 149.25 C 85.273397 137.93564 89.159401 124.8052 94.90625 111.4375 C 92.04795 111.31848 89.085796 111.06679 86.25 110.96875 C 85.869697 110.9556 85.504865 110.95026 85.125 110.9375 z "
           id="path3014"
           transform="matrix(0.2,0,0,0.2,209.02101,61.450124)" />
        <path
           style="fill:url(#linearGradient3009);fill-opacity:1"
           d="M 10.21875 111.34375 C 7.4408042 118.74542 5.1417677 126.27788 3.625 133.65625 C 2.3054 140.07881 1.77625 145.21403 1.78125 151.03125 C 1.78625 155.63198 1.92875 157.20453 2.625 160.65625 C 4.61135 170.51043 10.16715 176.93438 17.8125 178.21875 C 22.68215 179.03679 27.441 177.92486 32.03125 174.875 C 33.79165 173.70539 37.22265 170.43127 38.78125 168.4375 C 41.15575 165.39995 43.0786 162.21283 45.09375 158.03125 C 51.078366 145.61288 54.727247 129.32367 55.84375 110.375 C 52.647396 110.35554 49.456464 110.33066 46.3125 110.34375 C 45.70642 121.27089 44.15124 131.33632 41.5625 140.875 C 37.336 156.4483 30.617 167.27125 23.84375 169.375 C 21.69135 170.04365 19.5061 169.92062 17.65625 169.03125 C 16.30715 168.38265 14.5675 166.50624 13.65625 164.71875 C 8.868 155.33107 10.65755 136.75761 18.34375 116.09375 C 19.008568 114.30641 19.77545 112.57692 20.5 110.8125 C 20.194676 110.82374 19.867081 110.83214 19.5625 110.84375 C 16.353832 110.9661 13.34131 111.17896 10.21875 111.34375 z "
           id="path3012"
           transform="matrix(0.2,0,0,0.2,209.02101,61.450124)" />
        <path
           style="fill:url(#linearGradient3009);fill-opacity:1;opacity:0.75"
           d="M 10.21875 111.34375 C 13.34131 111.17896 16.353832 110.9661 19.5625 110.84375 C 19.867081 110.83214 20.194676 110.82374 20.5 110.8125 C 25.400854 98.877951 31.537018 87.522112 38.5 77.90625 C 40.59975 75.00645 44.20025 70.46235 44.59375 70.21875 C 44.7825 70.102015 44.8575 70.587455 45.375 75.875 C 46.603475 88.411249 46.898567 99.777423 46.3125 110.34375 C 49.456464 110.33066 52.647396 110.35554 55.84375 110.375 C 55.874763 109.84867 55.94169 109.37424 55.96875 108.84375 C 56.2135 104.05417 56.07725 90.79965 55.71875 85.4375 C 55.22125 78.00819 54.38375 71.206275 53.40625 66.40625 C 53.131 65.05124 52.90625 63.7565 52.90625 63.5625 C 52.90625 62.967175 57.31275 59.3934 60.5 57.40625 C 64.42625 54.95839 68.0386 53.46925 72.0625 52.65625 C 74.5206 52.1596 79.0626 52.13365 81.375 52.59375 C 84.6601 53.24735 87.50575 54.41439 90.25 56.25 C 95.7825 59.950665 100.34425 67.066875 102.78125 75.78125 C 103.065 76.797 103.28125 77.72375 103.28125 77.84375 C 103.28125 77.96385 102.69625 78.872125 101.96875 79.875 C 95.588719 88.668723 89.835781 99.604679 85.125 110.9375 C 85.504865 110.95026 85.869697 110.9556 86.25 110.96875 C 89.085796 111.06679 92.04795 111.31848 94.90625 111.4375 C 96.439291 107.87151 98.04498 104.29093 99.84375 100.71875 C 102.04415 96.348875 105.7065 89.65 106 89.46875 C 106.1525 89.374525 106.24125 89.905575 106.59375 93.03125 C 107.23731 98.744584 107.42957 105.31221 107.25 112.0625 C 110.38447 112.22326 113.50481 112.37861 116.65625 112.5625 C 116.83381 105.7896 116.62827 97.311126 115.96875 92.09375 C 115.4995 88.37946 114.4675 83.110935 113.78125 80.90625 L 113.46875 79.90625 L 115.1875 77.59375 C 118.0926 73.705375 120.24965 71.181875 123.625 67.8125 C 127.73165 63.71339 130.78335 61.29934 134.3125 59.28125 C 143.6621 53.934755 152.70675 54.76658 159.25 61.59375 C 167.99227 70.715562 171.37597 91.077873 168.4375 116.5 C 171.52762 116.78988 174.63837 116.97385 177.71875 117.28125 C 178.04607 114.48843 178.51177 111.77119 178.71875 108.9375 C 179.04475 104.49209 178.986 92.713825 178.625 88.875 C 177.7189 79.250955 176.0295 72.16539 173.09375 65.84375 C 168.44615 55.83609 161.54125 49.72611 152.8125 47.84375 C 139.4479 44.96165 125.7201 51.260395 112.375 66.4375 C 111.16875 67.809065 110.15 68.9375 110.125 68.9375 C 110.0965 68.9375 109.9335 68.456125 109.75 67.875 C 108.43565 63.73114 105.8764 59.055475 103 55.46875 C 98.08525 49.34014 92.0614 45.59957 84.40625 43.96875 C 82.3755 43.5366 81.96875 43.506 77.75 43.5 C 72.79865 43.492625 71.81165 43.610625 67.65625 44.6875 C 62.55115 46.01051 56.98325 48.69435 51.625 52.4375 L 50.28125 53.40625 L 50.09375 52.9375 C 49.98375 52.67999 49.4825 51.395535 49 50.09375 C 47.98885 47.36431 45.81825 42.85119 44.375 40.53125 C 40.4074 34.15369 35.0575 29.357535 29.21875 26.875 C 25.18125 25.15835 21.235 24.40525 19.25 25 C 18.26935 25.293815 17.059 26.298125 16.5625 27.25 C 16.1965 27.944025 16.125 28.35425 16.125 29.40625 C 16.125 30.53691 16.20525 30.765875 16.65625 31.5 C 17.25885 32.478815 18.43125 33.3511 19.65625 33.6875 C 20.13275 33.81825 21.24125 34.13 22.125 34.375 C 25.1286 35.20815 28.73035 37.152415 31.09375 39.28125 C 32.63435 40.668975 34.5075 42.882575 35.75 44.75 C 37.4026 47.23486 39.62625 51.6755 40.40625 54.0625 C 40.4825 54.29496 40.75 55.052625 41 55.75 C 41.24875 56.447385 41.6725 57.769875 41.9375 58.6875 L 42.40625 60.34375 L 39.5 63.25 C 37.89875 64.843 35.7025 67.1822 34.625 68.4375 C 24.911014 79.74887 16.280035 95.193829 10.21875 111.34375 z "
           id="path3790"
           transform="matrix(0.2,0,0,0.2,209.02101,61.450124)" />
        <path
           style="font-size:13.84184169999999980px;font-style:normal;font-variant:normal;font-weight:bold;font-stretch:normal;text-align:center;line-height:125%;letter-spacing:0px;word-spacing:0px;writing-mode:lr-tb;text-anchor:middle;fill:url(#linearGradient3818);fill-opacity:1;stroke:none;font-family:Honey Script;-inkscape-font-specification:Honey Script Bold"
           d="M 340.78125 143.6875 C 338.69394 143.1591 336.27375 142.64933 334.09375 142.125 C 333.3119 146.26401 332.44587 150.33469 331.3125 154.25 C 328.65484 164.38223 325.33017 169.4375 321.34375 169.4375 C 319.1844 169.4375 317.33865 168.21028 315.84375 165.71875 C 313.35221 161.56621 311.36991 158.82883 309.875 157.5 C 309.87499 152.79689 311.09943 145.57328 312.875 137.1875 C 309.1836 136.4229 304.86049 135.71684 301 134.96875 C 300.7083 143.45947 300.55149 151.78791 300.65625 159.75 C 300.32405 160.74662 300.15625 161.55435 300.15625 162.21875 C 300.15625 163.87978 300.74353 165.72553 301.90625 167.71875 C 303.06896 169.54588 304.38008 170.4375 305.875 170.4375 C 307.36991 170.4375 308.54448 169.21028 309.375 166.71875 L 311.625 166.71875 C 314.78092 174.19334 318.44118 177.93749 322.59375 177.9375 C 329.90221 177.93749 335.71256 167.79571 340.03125 147.53125 C 340.3225 146.22827 340.51688 144.97351 340.78125 143.6875 z "
           id="path3027"
           transform="matrix(0.2,0,0,0.2,209.02101,61.450124)" />
        <path
           style="font-size:13.84184169999999980px;font-style:normal;font-variant:normal;font-weight:bold;font-stretch:normal;text-align:center;line-height:125%;letter-spacing:0px;word-spacing:0px;writing-mode:lr-tb;text-anchor:middle;fill:url(#linearGradient3818);fill-opacity:1;stroke:none;font-family:Honey Script;-inkscape-font-specification:Honey Script Bold;opacity:0.75"
           d="M 295.25 133.90625 C 297.10379 134.2543 299.02506 134.58538 300.84375 134.9375 C 300.92447 134.68057 300.95182 134.50425 301.03125 134.25 C 301.02281 134.48713 301.00813 134.73203 301 134.96875 C 304.86049 135.71684 309.1836 136.4229 312.875 137.1875 C 313.92131 132.2459 314.93086 127.34543 316.59375 121.125 C 321.57679 101.85723 326.41162 92.218829 331.0625 92.21875 C 334.88281 92.218829 336.78121 99.11985 336.78125 112.90625 C 336.78122 123.21891 335.83275 132.91902 334.09375 142.125 C 336.27375 142.64933 338.69394 143.1591 340.78125 143.6875 C 343.38153 131.03881 344.74996 119.16271 344.75 108.15625 C 344.74996 93.373243 339.61079 86.000086 329.3125 86 C 322.8345 86.000086 317.83188 92.702061 314.34375 106.15625 C 312.68272 112.80039 311.03601 118.1386 309.375 122.125 C 309.37499 114.65046 310.29787 104.00529 312.125 90.21875 C 313.95211 76.266271 316.68949 58.919123 320.34375 38.15625 C 320.67593 35.830957 321.09542 33.429169 321.59375 30.9375 C 322.25814 28.446112 322.89807 25.929177 323.5625 23.4375 C 324.72519 19.2851 325.31247 16.379926 325.3125 14.71875 C 325.31247 10.566359 323.33018 8.5001632 319.34375 8.5 C 316.02169 8.1679594 313.8716 8.9230399 312.875 10.75 C 313.37329 12.41118 313.2894 15.987537 312.625 21.46875 C 311.13007 33.59434 309.7877 44.124365 308.625 53.09375 C 307.46228 62.063372 306.4555 69.551677 305.625 75.53125 C 304.38305 86.144287 303.46898 96.216977 302.6875 106.0625 C 300.04432 116.94107 297.58534 126.05668 295.25 133.90625 z "
           id="path3025"
           transform="matrix(0.2,0,0,0.2,209.02101,61.450124)" />
        <path
           style="font-size:13.84184169999999980px;font-style:normal;font-variant:normal;font-weight:bold;font-stretch:normal;text-align:center;line-height:125%;letter-spacing:0px;word-spacing:0px;writing-mode:lr-tb;text-anchor:middle;fill:url(#linearGradient3818);fill-opacity:1;stroke:none;font-family:Honey Script;-inkscape-font-specification:Honey Script Bold;opacity:0.75"
           d="M 238.21875 124.59375 C 240.94814 124.97576 243.52432 125.3884 246.21875 125.78125 C 246.61747 123.75603 247.01149 121.73746 247.5 119.875 C 248.66271 116.05471 249.63823 112.64615 250.46875 109.65625 C 251.29925 106.66648 252.05433 104.26469 252.71875 102.4375 C 254.87806 94.464677 257.36375 90.468831 260.1875 90.46875 C 263.67562 90.468831 265.77307 94.296882 266.4375 101.9375 L 269.40625 105.90625 L 266.4375 128.8125 C 268.60435 129.16178 270.99034 129.45698 273.125 129.8125 C 273.62168 129.89522 274.03638 129.97945 274.53125 130.0625 C 276.14241 118.54774 278.39699 108.38326 281.375 99.6875 L 272.65625 96.6875 L 268.1875 87.71875 C 266.19425 83.89849 261.52722 82.00009 254.21875 82 C 250.8967 82.00009 246.81696 90.631715 242 107.90625 C 240.36011 114.39453 239.21593 119.69697 238.21875 124.59375 z "
           id="path3023"
           transform="matrix(0.2,0,0,0.2,209.02101,61.450124)" />
        <path
           style="font-size:13.84184169999999980px;font-style:normal;font-variant:normal;font-weight:bold;font-stretch:normal;text-align:center;line-height:125%;letter-spacing:0px;word-spacing:0px;writing-mode:lr-tb;text-anchor:middle;fill:url(#linearGradient3818);fill-opacity:1;stroke:none;font-family:Honey Script;-inkscape-font-specification:Honey Script Bold"
           d="M 192.5 118.90625 C 192.41758 121.53464 192.125 124.66684 192.125 127.09375 C 192.125 137.72432 193.8556 147.61441 197.34375 156.75 C 202.1607 169.04156 208.89393 175.1875 217.53125 175.1875 C 223.71598 175.1875 229.90898 167.22131 236.09375 152.09375 C 237.20799 168.38426 241.71788 176.6875 249.75 176.6875 C 256.56017 176.6875 262.11883 168.9475 266.4375 153.5 C 270.42392 165.62546 275.47919 171.6875 281.625 171.6875 C 286.60802 171.6875 292.58616 160.90578 299.5625 139.3125 C 300.13163 137.55896 300.32733 136.58135 300.84375 134.9375 C 299.02506 134.58538 297.10379 134.2543 295.25 133.90625 C 289.19803 154.24817 284.10966 164.96875 280.125 164.96875 C 277.30123 164.96876 275.23503 162.06358 273.90625 156.25 C 272.90961 152.09747 272.57402 148.10162 272.90625 144.28125 C 273.32908 139.3011 273.89578 134.60411 274.53125 130.0625 C 274.03638 129.97945 273.62168 129.89522 273.125 129.8125 C 270.99034 129.45698 268.60435 129.16178 266.4375 128.8125 L 266.4375 128.84375 C 266.10527 131.83363 265.43409 135.24219 264.4375 139.0625 C 263.44087 142.71677 262.2663 146.68137 260.9375 151 C 257.44934 161.96275 254.12468 168.36038 250.96875 170.1875 C 248.64331 170.1875 246.74491 168.62469 245.25 165.46875 C 244.08728 162.97723 243.5 160.32375 243.5 157.5 C 243.5 145.29872 244.44835 134.77371 246.21875 125.78125 C 243.52432 125.3884 240.94814 124.97576 238.21875 124.59375 C 237.68199 127.22959 237.35054 129.32529 237 131.5 C 229.53535 154.50895 223.17172 166.71875 218.03125 166.71875 C 214.87529 166.71875 211.46673 164.23307 207.8125 159.25 C 202.49722 151.94153 199.84374 142.47092 199.84375 130.84375 C 199.84374 129.01667 200.51492 127.17092 201.84375 125.34375 C 202.84035 124.01498 203.59543 122.95556 204.09375 122.125 C 204.74468 121.31137 205.13986 120.74166 205.3125 120.40625 C 201.03591 119.90269 196.8181 119.37864 192.5 118.90625 z "
           id="path3021"
           transform="matrix(0.2,0,0,0.2,209.02101,61.450124)" />
        <path
           style="font-size:13.84184169999999980px;font-style:normal;font-variant:normal;font-weight:bold;font-stretch:normal;text-align:center;line-height:125%;letter-spacing:0px;word-spacing:0px;writing-mode:lr-tb;text-anchor:middle;fill:url(#linearGradient3818);fill-opacity:1;stroke:none;font-family:Honey Script;-inkscape-font-specification:Honey Script Bold"
           d="M 219.59375 2.09375 C 218.54772 1.9041698 217.45239 1.7812682 216.28125 1.78125 C 215.60633 1.7812738 215.00291 1.9032475 214.40625 2.125 L 219.59375 2.09375 z "
           id="path3019"
           transform="matrix(0.2,0,0,0.2,209.02101,61.450124)" />
        <path
           style="font-size:13.84184169999999980px;font-style:normal;font-variant:normal;font-weight:bold;font-stretch:normal;text-align:center;line-height:125%;letter-spacing:0px;word-spacing:0px;writing-mode:lr-tb;text-anchor:middle;fill:url(#linearGradient3818);fill-opacity:1;stroke:none;font-family:Honey Script;-inkscape-font-specification:Honey Script Bold;opacity:0.75"
           d="M 219.59375 2.09375 L 214.40625 2.125 C 210.74448 3.4859267 208.52663 9.0065081 207.8125 18.71875 C 203.49383 31.50875 199.78093 49.359285 196.625 72.28125 C 194.13158 90.566409 192.91399 105.70424 192.5 118.90625 C 196.8181 119.37864 201.03591 119.90269 205.3125 120.40625 C 205.31607 120.39931 205.34038 120.38173 205.34375 120.375 C 212.81832 109.74453 219.2686 94.71527 224.75 75.28125 C 230.06523 56.345728 232.74996 40.1419 232.75 26.6875 C 232.74996 11.851903 228.33928 3.6787687 219.59375 2.09375 z M 221.03125 11 C 223.68885 13.657791 224.99997 21.198745 225 33.65625 C 224.99997 42.791993 222.51428 55.671158 217.53125 72.28125 C 212.38207 90.220356 206.65561 104.07504 200.34375 113.875 C 200.34374 90.62079 207.24476 56.345983 221.03125 11 z "
           id="text3792"
           transform="matrix(0.2,0,0,0.2,209.02101,61.450124)" />
      </g>
      <g
         id="g6048" />
    </g>
  </g>
</svg>
