<?xml version="1.0" encoding="UTF-8" standalone="no"?>
<!-- Created with Inkscape (http://www.inkscape.org/) -->

<svg
   xmlns:dc="http://purl.org/dc/elements/1.1/"
   xmlns:cc="http://creativecommons.org/ns#"
   xmlns:rdf="http://www.w3.org/1999/02/22-rdf-syntax-ns#"
   xmlns:svg="http://www.w3.org/2000/svg"
   xmlns="http://www.w3.org/2000/svg"
   xmlns:xlink="http://www.w3.org/1999/xlink"
   xmlns:sodipodi="http://sodipodi.sourceforge.net/DTD/sodipodi-0.dtd"
   xmlns:inkscape="http://www.inkscape.org/namespaces/inkscape"
   width="563.16791"
   height="582.2627"
   id="svg14923"
   sodipodi:version="0.32"
   inkscape:version="0.48.4 r9939"
   version="1.0"
   sodipodi:docname="screw_tool.svg"
   inkscape:output_extension="org.inkscape.output.svg.inkscape"
   inkscape:export-filename="/home/raphael/Science/MLadmin/Logo/MLadmin.png"
   inkscape:export-xdpi="47.939999"
   inkscape:export-ydpi="47.939999">
  <defs
     id="defs14925">
    <filter
       inkscape:collect="always"
       id="filter17009"
       color-interpolation-filters="sRGB">
      <feGaussianBlur
         inkscape:collect="always"
         stdDeviation="7.8079598"
         id="feGaussianBlur17011" />
    </filter>
    <linearGradient
       gradientUnits="userSpaceOnUse"
       y2="39.888329"
       x2="289.37836"
       y1="97.700829"
       x1="247.60245"
       id="linearGradient3818"
       xlink:href="#linearGradient3812"
       inkscape:collect="always" />
    <linearGradient
       id="linearGradient3796">
      <stop
         id="stop3798"
         offset="0"
         style="stop-color:#10283d;stop-opacity:1;" />
      <stop
         id="stop3800"
         offset="1"
         style="stop-color:#0b2155;stop-opacity:0.39215687;" />
    </linearGradient>
    <linearGradient
       id="linearGradient3812"
       inkscape:collect="always">
      <stop
         id="stop3814"
         offset="0"
         style="stop-color:#216778;stop-opacity:1;" />
      <stop
         id="stop3816"
         offset="1"
         style="stop-color:#216778;stop-opacity:0;" />
    </linearGradient>
  </defs>
  <sodipodi:namedview
     id="base"
     pagecolor="#ffffff"
     bordercolor="#666666"
     borderopacity="1.0"
     gridtolerance="10000"
     guidetolerance="10"
     objecttolerance="10"
     inkscape:pageopacity="0.0"
     inkscape:pageshadow="2"
     inkscape:zoom="0.54930124"
     inkscape:cx="298.36256"
     inkscape:cy="340.08386"
     inkscape:document-units="mm"
     inkscape:current-layer="layer1"
     inkscape:window-width="1307"
     inkscape:window-height="744"
     inkscape:window-x="59"
     inkscape:window-y="24"
     showgrid="false"
     inkscape:window-maximized="1"
     units="mm"
     fit-margin-top="5"
     fit-margin-left="5"
     fit-margin-right="5"
     fit-margin-bottom="5" />
  <metadata
     id="metadata14928">
    <rdf:RDF>
      <cc:Work
         rdf:about="">
        <dc:format>image/svg+xml</dc:format>
        <dc:type
           rdf:resource="http://purl.org/dc/dcmitype/StillImage" />
        <dc:title></dc:title>
      </cc:Work>
    </rdf:RDF>
  </metadata>
  <g
     inkscape:label="Layer 1"
     inkscape:groupmode="layer"
     id="layer1"
     transform="translate(-100.06938,-251.75122)">
    <path
       inkscape:connector-curvature="0"
       style="fill:#162d50;fill-opacity:1"
       d="m 301.53165,682.1484 c 10.88456,14.30641 22.60549,27.78902 34.97043,39.64134 10.77338,10.32462 19.98679,17.62679 31.19913,24.66619 8.86889,5.56531 12.07093,7.19634 19.56399,10.03771 21.39002,8.11431 40.55757,5.23374 52.29605,-7.9379 7.47668,-8.38963 11.041,-18.94231 10.728,-31.48064 -0.11998,-4.80852 -2.2697,-15.3854 -4.22185,-20.80383 -2.97423,-8.25499 -6.74601,-15.88137 -12.35953,-24.83038 -16.67186,-26.57835 -43.66353,-53.28289 -78.81643,-78.39614 -3.89672,6.11219 -7.8004,12.21178 -11.57184,18.26291 20.31563,14.40855 37.82111,29.60122 53.05951,46.1467 24.8789,27.01289 37.54858,53.13129 33.39374,68.72849 -1.32009,4.95662 -4.16721,8.957 -8.12205,11.44285 -2.88424,1.81296 -8.64484,2.95067 -13.19247,2.54011 -23.88657,-2.15147 -57.43776,-28.06741 -87.9308,-67.91357 -2.63332,-3.441 -5.00591,-7.08551 -7.52308,-10.61356 -0.2551,0.4406 -0.57885,0.88432 -0.83308,1.3244 -3.76741,6.52306 -7.06966,12.78358 -10.63972,19.18532 z"
       id="path3001" />
    <path
       id="path3870"
       d="m 152.18417,551.32063 -6.05197,9.88832 c -0.26603,2.19542 0.0703,4.94942 1.12636,6.7579 0.89347,1.54605 1.53688,2.14301 3.56345,3.41777 2.1781,1.37008 2.73876,1.591 4.69947,1.61177 2.61579,0.0252 5.69449,-1.27434 7.82692,-3.22655 0.82928,-0.75949 2.77306,-2.51714 4.31591,-3.92271 5.2446,-4.77656 13.37679,-9.26093 20.34163,-11.23416 4.54013,-1.28623 11.11207,-2.27253 16.21507,-2.40322 6.78937,-0.17253 17.94026,0.94712 23.48373,2.33698 0.54021,0.1348 2.32392,0.53759 3.97028,0.90104 1.64486,0.36586 4.70598,1.15208 6.79481,1.75352 l 3.85667,1.08163 2.03907,9.18045 c 1.12844,5.01497 2.91316,12.04248 4.0257,15.63929 10.02326,32.43252 29.36084,67.79048 53.14038,99.04574 3.57006,-6.40174 6.87231,-12.66226 10.63972,-19.18532 0.25423,-0.44008 0.57798,-0.8838 0.83308,-1.3244 -17.05741,-23.90749 -31.55025,-49.51581 -41.63919,-74.58724 -3.0418,-7.55879 -7.43263,-20.00111 -7.42507,-21.05433 0.004,-0.50506 1.02987,-0.0613 11.84287,5.34898 25.63838,12.82428 47.89177,26.02882 67.53654,39.96157 3.77144,-6.05113 7.67512,-12.15072 11.57184,-18.26291 -0.97424,-0.69601 -1.81135,-1.40287 -2.79833,-2.09629 -8.93005,-6.27527 -34.62864,-22.07399 -45.39268,-27.88097 -14.91466,-8.0441 -28.99482,-14.73318 -39.42607,-18.66656 -2.94382,-1.1117 -5.68802,-2.14958 -6.06174,-2.38466 -1.14683,-0.72138 -2.65389,-13.60078 -2.61977,-22.14863 0.0421,-10.52972 1.55068,-19.29301 4.86049,-28.0298 2.02186,-5.33709 7.43778,-14.05803 11.12617,-17.95511 5.23982,-5.53641 10.93623,-9.6041 17.79769,-12.66631 13.83297,-6.17351 33.00913,-6.37604 52.74953,-0.51101 2.30057,0.68422 4.38577,1.33043 4.61694,1.47584 0.23136,0.14553 1.29451,2.47115 2.3449,5.08784 9.20919,22.94628 23.24486,47.24253 39.36808,70.04994 0.99406,-1.46859 1.92321,-2.90891 2.92258,-4.37906 3.14636,-4.62857 6.67391,-9.31401 9.87074,-13.95571 -4.98554,-7.2409 -9.90471,-14.60926 -14.58302,-22.36412 -5.75178,-9.53405 -14.21862,-24.70657 -14.21213,-25.4916 0.003,-0.40795 1.07364,0.0267 7.52207,3.1352 11.7864,5.68359 24.76845,13.24866 37.55504,21.77462 4.1043,-5.83827 8.19194,-11.67134 12.36124,-17.5143 -12.8382,-8.55759 -29.43607,-18.35927 -40.3019,-23.41845 -7.72381,-3.59684 -19.18382,-8.03081 -24.26248,-9.38035 l -2.30507,-0.60975 -2.33423,-6.17337 c -3.9703,-10.30813 -6.15755,-17.48345 -8.55822,-28.06857 -2.92028,-12.87814 -3.97086,-21.65983 -3.58205,-30.9038 1.02992,-24.48967 13.69028,-40.92763 34.77093,-45.2597 28.16676,-5.78793 71.45207,12.42543 116.86638,48.89418 4.30659,-5.60641 8.48319,-11.32847 12.81177,-16.89483 -5.01242,-4.04029 -9.70432,-8.317 -14.94416,-12.17289 -8.1686,-6.01474 -30.86921,-20.13603 -38.7017,-24.0924 -19.63771,-9.91645 -35.37232,-15.18774 -51.10772,-17.19258 -24.91047,-3.17368 -45.07008,2.62606 -59.27334,17.16015 -21.74665,22.25315 -26.18725,56.36874 -13.12106,100.46759 1.1805,3.98572 2.05965,7.27775 2.02935,7.32591 -0.0345,0.0549 -1.13703,-0.11633 -2.47887,-0.46702 -9.57539,-2.48937 -21.70609,-3.32305 -32.10103,-2.12818 -17.7616,2.04141 -32.3047,9.1733 -44.72246,21.94401 -3.29331,3.38847 -3.80727,4.07476 -8.93091,12.19448 -6.01402,9.52933 -6.9827,11.57367 -9.94353,20.88353 -3.63747,11.43761 -5.15404,25.45362 -4.43611,40.31151 l 0.1777,3.72461 -1.16807,-0.14661 c -0.62936,-0.10013 -3.67325,-0.75116 -6.76568,-1.39912 -6.48325,-1.35952 -17.78521,-2.5488 -24.0032,-2.57972 -17.09346,-0.0848 -32.83785,4.31137 -44.69531,12.55091 -3.78989,2.63355 -6.98252,5.47365 -9.62803,8.22703 z"
       style="fill:#162d50;fill-opacity:1"
       inkscape:connector-curvature="0" />
    <path
       id="path3864"
       d="m 391.45665,537.31903 c 12.53112,17.72612 26.22833,34.66259 40.47778,48.65087 31.54799,30.9693 62.42147,46.05745 78.58513,38.42546 9.89827,-4.67368 16.09534,-13.13354 17.92191,-24.35089 1.40121,-8.605 -1.15974,-20.60849 -6.79012,-32.08156 -13.22361,-26.94501 -42.78779,-57.52117 -83.27998,-85.99293 -1.53387,-1.07857 -3.76277,-2.30235 -5.4782,-3.44592 -4.1693,5.84296 -8.25694,11.67603 -12.36124,17.5143 13.0685,8.71394 25.95027,18.4156 37.33272,28.27232 32.04418,27.74897 53.04528,57.34592 51.46825,72.45204 -0.31868,3.04874 -1.65149,6.04232 -3.0886,7.04727 -3.19606,2.23533 -9.30312,1.4141 -18.31918,-2.53315 -5.68947,-2.49262 -18.12053,-10.29862 -24.14017,-15.18477 -20.16611,-16.36561 -40.72719,-39.79172 -59.53498,-67.10781 -3.19683,4.6417 -6.72437,9.32714 -9.87074,13.95571 -0.99937,1.47015 -1.92852,2.91047 -2.92258,4.37906 z"
       style="fill:#162d50;fill-opacity:1"
       inkscape:connector-curvature="0" />
    <path
       id="path3862"
       d="m 503.18653,383.60425 c 0.47428,0.38087 0.95456,0.68217 1.42926,1.06708 36.28426,29.41552 67.0515,65.3785 79.03206,92.47898 1.73838,3.93267 3.34165,5.81564 6.45403,7.50455 2.81579,1.52519 5.04976,1.83547 7.82209,1.05539 4.25581,-1.19904 7.09423,-4.87687 7.57443,-9.77084 0.28085,-2.86149 -0.17088,-4.40862 -3.92372,-11.79428 -16.07567,-31.63622 -47.51613,-66.75706 -85.57638,-97.43571 -4.32858,5.56636 -8.50518,11.28842 -12.81177,16.89483 z"
       style="fill:#162d50;fill-opacity:1"
       inkscape:connector-curvature="0" />
    <g
       id="g3010"
       transform="matrix(0,1,1,0,-161.22924,161.22929)">
      <path
         transform="matrix(0.955132,0.0320727,0,0.947002,20.1978,22.7492)"
         id="path14956"
         d="m 595.81854,293.81638 c -0.99549,-0.006 -1.99036,0.015 -3,0.0937 -0.13492,0.0105 -0.27109,0.0192 -0.40625,0.0312 -0.98433,0.0881 -1.97278,0.23373 -2.96875,0.40625 -0.9624,0.1666 -1.93436,0.3762 -2.90625,0.625 -0.24907,0.0637 -0.50036,0.11826 -0.75,0.1875 -0.10528,0.0292 -0.20712,0.0635 -0.3125,0.0937 -0.44023,0.12609 -0.87065,0.2627 -1.3125,0.40625 -0.48584,0.15795 -0.98105,0.32055 -1.46875,0.5 -0.17681,0.065 -0.35421,0.11963 -0.53125,0.1875 -0.66457,0.25484 -1.33241,0.54798 -2,0.84375 l -142.28125,135.2814 c -1.27364,3.62059 -2.62935,7.05668 -4.0625,10.34375 -0.47771,1.09568 -0.94239,2.15947 -1.4375,3.21875 -0.004,0.009 0.004,0.0227 0,0.0312 -0.49126,1.05045 -1.02302,2.07879 -1.53125,3.09375 -5.12648,10.24343 -11.10796,18.68682 -17.875,25.5 -1.35226,1.36147 -2.71102,2.64258 -4.125,3.875 -0.70702,0.61625 -1.43404,1.22802 -2.15625,1.8125 -1.1457,0.92719 -2.31658,1.77667 -3.5,2.625 -5.5355,3.97068 -11.45945,7.1109 -17.78125,9.4375 -4.25899,1.56736 -8.68986,2.78365 -13.28125,3.65625 l -12.9375,10.21875 2.15625,14.5625 0,0.0312 12.1875,19.59375 -253.28125,238.4375 -9.5,19.0625 3.03125,5.1875 4.125,1.8125 20.75,-8.90625 239.5,-228.0625 c -0.85804,1.35636 -1.80097,2.73182 -2.90625,4.15625 l 11.125,-11.96875 2.875,-2.75 17.90625,12.4375 15.625,0.5625 12.40625,-11.3125 c 3.15479,-26.58864 23.305,-49.24263 69.53125,-65.78125 l 140.65625,-136.875 c 3.11998,-13.14651 -3.96132,-32.52737 -16.625,-46.25 -0.54942,-0.59495 -1.11744,-1.20844 -1.6875,-1.78125 -0.56416,-0.56656 -1.13503,-1.11343 -1.71875,-1.65625 -0.0484,-0.045 -0.1077,-0.0801 -0.15625,-0.125 -1.14352,-1.05644 -2.2861,-2.07661 -3.5,-3.03125 -0.40415,-0.3185 -0.8072,-0.6313 -1.21875,-0.9375 -0.22945,-0.17057 -0.45579,-0.33339 -0.6875,-0.5 -0.22526,-0.16217 -0.46014,-0.31039 -0.6875,-0.46875 -0.43149,-0.30007 -0.84236,-0.58912 -1.28125,-0.875 -0.0316,-0.0207 -0.0621,-0.0419 -0.0937,-0.0625 -0.6234,-0.40408 -1.26851,-0.81344 -1.90625,-1.1875 -0.33132,-0.19467 -0.66493,-0.37627 -1,-0.5625 -0.35232,-0.19563 -0.70614,-0.37645 -1.0625,-0.5625 -0.13545,-0.0708 -0.27023,-0.14936 -0.40625,-0.21875 -1.26517,-0.64445 -2.53139,-1.234 -3.84375,-1.75 -0.22764,-0.0898 -0.45851,-0.16431 -0.6875,-0.25 -0.49516,-0.1847 -0.99874,-0.36603 -1.5,-0.53125 -0.0216,-0.007 -0.0409,-0.0241 -0.0625,-0.0312 -0.80076,-0.26243 -1.62199,-0.47683 -2.4375,-0.6875 -0.25081,-0.065 -0.49785,-0.12753 -0.75,-0.1875 -0.41333,-0.0979 -0.83318,-0.19714 -1.25,-0.28125 -0.12315,-0.0249 -0.25155,-0.0388 -0.375,-0.0625 -0.5417,-0.10366 -1.07773,-0.20161 -1.625,-0.28125 -0.55248,-0.0808 -1.09832,-0.1632 -1.65625,-0.21875 -0.11482,-0.0114 -0.22871,-0.0209 -0.34375,-0.0312 -0.98981,-0.0889 -1.99445,-0.11889 -3,-0.125 z"
         style="opacity:0.28333303;fill:#000000;fill-opacity:1;fill-rule:evenodd;stroke:none;filter:url(#filter17009)"
         inkscape:connector-curvature="0" />
      <path
         sodipodi:nodetypes="ccccccccccccc"
         id="path2223"
         d="m 372.46444,526.62946 -12.39584,-19.94114 -2.1558,-14.55164 12.93479,-10.24005 c 29.38489,-5.58462 52.16636,-24.97639 65.75187,-63.59607 L 578.8822,283.02418 c 37.97177,-16.8228 71.36417,33.36504 65.21287,59.28447 L 503.42923,479.20189 c -46.22625,16.53863 -66.36973,39.16323 -69.52452,65.75187 l -12.39584,11.31794 -15.62954,-0.53895 -19.4022,-13.47374 -14.01269,-15.62955 z"
         style="fill:#000000;fill-rule:evenodd;stroke:#000000;stroke-width:1.25;stroke-linecap:round;stroke-linejoin:round;stroke-miterlimit:4;stroke-opacity:1;stroke-dasharray:none"
         inkscape:connector-curvature="0" />
      <path
         sodipodi:nodetypes="cccccccccccc"
         id="path6171"
         d="m 594.53827,279.64082 c -5.06143,-0.0308 -10.31647,1.00929 -15.65625,3.375 L 436.60077,418.29707 c -13.58551,38.61968 -36.36512,58.00914 -65.75,63.59375 l -12.9375,10.25 2.15625,14.5625 12.40625,19.9375 8.03125,8.96875 22.67051,-36.52746 c 30.32427,-12.61934 47.60522,-36.09818 68.41123,-60.4196 L 627.47577,296.04707 c -8.7908,-9.51928 -20.26952,-16.32922 -32.9375,-16.40625 z"
         style="fill:#333333;fill-rule:evenodd;stroke:#000000;stroke-width:1.25;stroke-linecap:round;stroke-linejoin:round;stroke-miterlimit:4;stroke-opacity:1;stroke-dasharray:none"
         inkscape:connector-curvature="0" />
      <path
         sodipodi:nodetypes="cccsccsccccccc"
         id="path2225"
         d="m 606.81952,285.73457 c -2.18377,-0.0603 -4.3535,0.27208 -6.375,1.0625 L 455.47577,424.76582 c -10.55485,11.99772 -14.32545,21.47617 -13.5625,27.5625 1.41917,11.32094 18.45344,10.89809 36.25,-6.96875 l 146.5312,-139.15625 c 4.0205,-7.81067 -2.7631,-16.12122 -11.4062,-19.21875 -2.09236,-0.74987 -4.28498,-1.18971 -6.46875,-1.25 z m -200.8125,198.59375 c -4.01449,-0.01 -8.96289,0.53683 -14.6875,1.34375 l -14.89567,12.83846 c 1.62158,7.33964 11.86009,21.95387 21.92692,21.94279 l 15.0625,-13.21875 c 8.34755,-17.85613 4.63722,-22.877 -7.40625,-22.90625 z"
         style="fill:#cccccc;fill-rule:evenodd;stroke:none"
         inkscape:connector-curvature="0" />
      <path
         sodipodi:nodetypes="ccccc"
         id="path2227"
         d="m 637.62767,315.90011 -168.90873,161.90244 3.77264,8.40568 168.48459,-161.31804 -3.3485,-8.99008 z"
         style="fill:#333333;fill-rule:evenodd;stroke:#000000;stroke-width:1.25;stroke-linecap:round;stroke-linejoin:round;stroke-miterlimit:4;stroke-opacity:1;stroke-dasharray:none"
         inkscape:connector-curvature="0" />
      <path
         sodipodi:nodetypes="ccccc"
         id="path2229"
         d="m 640.86137,324.52331 0.539,17.24639 -139.58799,133.12059 c -9.0486,1.45587 -19.10154,5.44315 -29.58488,11.20323 L 640.86137,324.52331 z"
         style="fill:#4d4d4d;fill-rule:evenodd;stroke:#000000;stroke-width:1.25;stroke-linecap:round;stroke-linejoin:round;stroke-miterlimit:4;stroke-opacity:1;stroke-dasharray:none"
         inkscape:connector-curvature="0" />
      <path
         sodipodi:nodetypes="ccccc"
         id="path2233"
         d="m 406.41827,537.40846 28.02539,-26.94749 3.2337,7.5453 -26.94749,25.86959 -4.3116,-6.4674 z"
         style="fill:#333333;fill-rule:evenodd;stroke:#000000;stroke-width:1.25;stroke-linecap:round;stroke-linejoin:round;stroke-miterlimit:4;stroke-opacity:1;stroke-dasharray:none"
         inkscape:connector-curvature="0" />
      <path
         sodipodi:nodetypes="ccccc"
         id="path2235"
         d="m 437.56378,518.6588 -7.66852,22.64553 -7.62029,7.08134 -11.5451,-4.82161 26.83391,-24.90526 z"
         style="fill:#4d4d4d;fill-rule:evenodd;stroke:#000000;stroke-width:1.25;stroke-linecap:round;stroke-linejoin:round;stroke-miterlimit:4;stroke-opacity:1;stroke-dasharray:none"
         inkscape:connector-curvature="0" />
      <path
         sodipodi:nodetypes="ccccc"
         id="path2237"
         d="m 468.3975,477.95192 21.01904,-25.15857 142.82163,-135.27639 5.9285,-2.1558 -169.76917,162.59076 z"
         style="fill:#1a1a1a;fill-rule:evenodd;stroke:#000000;stroke-width:1.25;stroke-linecap:round;stroke-linejoin:round;stroke-miterlimit:4;stroke-opacity:1;stroke-dasharray:none"
         inkscape:connector-curvature="0" />
      <path
         id="path2239"
         d="m 406.95722,536.33056 c 0,-0.17965 0,-0.3593 0,0 z"
         style="fill:#ffffff;fill-rule:evenodd;stroke:#000000;stroke-width:1.25;stroke-linecap:round;stroke-linejoin:round;stroke-miterlimit:4;stroke-opacity:1;stroke-dasharray:none"
         inkscape:connector-curvature="0" />
      <path
         sodipodi:nodetypes="ccccc"
         id="path2241"
         d="m 419.88238,519.62312 -6.78885,6.78883 -6.88311,10.44792 27.69429,-25.85995 -14.02233,8.6232 z"
         style="fill:#1a1a1a;fill-rule:evenodd;stroke:#000000;stroke-width:1.25;stroke-linecap:round;stroke-linejoin:round;stroke-miterlimit:4;stroke-opacity:1;stroke-dasharray:none"
         inkscape:connector-curvature="0" />
      <path
         sodipodi:nodetypes="cccccc"
         id="path2243"
         d="m 366.53599,493.75353 15.10024,-12.29192 -9.71074,3.12977 -10.77899,9.7011 4.85054,6.4674 0.53895,-7.00635 z"
         style="fill:#808080;fill-rule:evenodd;stroke:#000000;stroke-width:1.25;stroke-linecap:round;stroke-linejoin:round;stroke-miterlimit:4;stroke-opacity:1;stroke-dasharray:none"
         inkscape:connector-curvature="0" />
      <path
         sodipodi:nodetypes="cccccc"
         id="path2245"
         d="m 432.5591,438.91097 15.89726,-19.53251 143.36063,-137.43218 -11.31794,2.15579 -141.74379,134.73744 -6.19616,20.07146 z"
         style="fill:#808080;fill-rule:evenodd;stroke:#000000;stroke-width:1.25;stroke-linecap:round;stroke-linejoin:round;stroke-miterlimit:4;stroke-opacity:1;stroke-dasharray:none"
         inkscape:connector-curvature="0" />
      <path
         sodipodi:nodetypes="ccc"
         id="path4185"
         d="m 362.07054,506.50894 c 7.03008,-13.78745 53.68928,42.30223 49.35915,47.5231 -9.19244,7.58548 -52.27487,-40.55305 -49.35915,-47.5231 z"
         style="fill:#1a1a1a;fill-rule:evenodd;stroke:none"
         inkscape:connector-curvature="0" />
      <path
         style="fill:#000000;fill-rule:evenodd;stroke:#000000;stroke-width:1.39703;stroke-linecap:round;stroke-linejoin:round;stroke-miterlimit:4;stroke-opacity:1;stroke-dasharray:none"
         d="m 373.50306,516.14884 c 3.60842,-6.97024 27.55789,21.38578 25.3353,24.02519 -4.71834,3.83483 -26.8319,-20.50152 -25.3353,-24.02519 z"
         id="path4187"
         sodipodi:nodetypes="ccc"
         inkscape:connector-curvature="0" />
      <path
         sodipodi:nodetypes="cccccccc"
         id="path4189"
         d="m 379.21479,519.75102 -260.23831,245.00484 -9.52091,19.04183 3.03141,5.18708 4.12339,1.81374 20.77321,-8.905 257.66451,-245.36985 c 1.32736,-2.09325 -13.15439,-19.90964 -15.8333,-16.77264 z"
         style="fill:#f9f9f9;fill-rule:evenodd;stroke:#000000;stroke-width:1.25;stroke-linecap:round;stroke-linejoin:round;stroke-miterlimit:4;stroke-opacity:1;stroke-dasharray:none"
         inkscape:connector-curvature="0" />
      <path
         sodipodi:nodetypes="ccccccc"
         id="path12014"
         d="m 387.36495,525.85755 -260.13701,247.14977 -14.59874,15.86819 4.21307,1.54205 20.62407,-9.23423 256.67237,-244.73927 c -0.20485,-3.95367 -3.8727,-7.67526 -6.77376,-10.58651 z"
         style="fill:#999999;fill-rule:evenodd;stroke:none"
         inkscape:connector-curvature="0" />
      <path
         sodipodi:nodetypes="ccccccccccc"
         id="path7152"
         d="m 393.38053,533.81053 -258.31105,244.86481 1.56134,-5.20445 -13.11222,-2.34396 -4.19399,-5.99459 -9.51409,18.6665 2.99559,4.9503 3.88593,1.13315 20.13546,-8.32711 257.67063,-245.39835 c -0.23502,-0.85086 -0.44147,-1.716 -1.1176,-2.3463 z"
         style="fill:#808080;fill-rule:evenodd;stroke:none"
         inkscape:connector-curvature="0" />
      <path
         sodipodi:nodetypes="ccccccccc"
         id="path5168"
         d="m 146.93194,762.53524 -5.78882,2.30939 -12.31727,12.31727 -11.57823,9.85381 1.13527,1.25904 16.35525,-8.15671 12.56361,-11.33188 -5.41959,0.73904 5.04978,-6.98996 z"
         style="fill:#b3b3b3;fill-rule:evenodd;stroke:#000000;stroke-width:1.25;stroke-linecap:round;stroke-linejoin:round;stroke-miterlimit:4;stroke-opacity:1;stroke-dasharray:none"
         inkscape:connector-curvature="0" />
      <path
         sodipodi:nodetypes="ccccc"
         id="path5175"
         d="m 141.49717,769.6176 -5.03461,0.40029 4.9269,-4.92691 5.60417,-2.24779 -5.49646,6.77441 z"
         style="fill:#ececec;fill-rule:evenodd;stroke:#000000;stroke-width:1.25;stroke-linecap:round;stroke-linejoin:round;stroke-miterlimit:4;stroke-opacity:1;stroke-dasharray:none"
         inkscape:connector-curvature="0" />
      <path
         sodipodi:nodetypes="cccccc"
         id="path6181"
         d="M 123.49411,771.49142 385.50148,523.92343 c 1.34775,1.33246 2.48471,3.38538 3.87181,4.85564 l -260.58984,247.29297 -1.66462,-3.21278 -3.62472,-1.36784 z"
         style="fill:#cccccc;fill-rule:evenodd;stroke:none"
         inkscape:connector-curvature="0" />
      <path
         sodipodi:nodetypes="ccccc"
         id="path8123"
         d="m 374.99436,523.13713 c 7.16067,5.89837 12.01654,18.04207 -1.04089,34.86977 l 20.29733,-21.85866 c -2.44742,-7.94549 -8.75205,-12.98964 -14.052,-17.17467 l -5.20444,4.16356 z"
         style="opacity:0.41000001;fill:#999999;fill-rule:evenodd;stroke:none"
         inkscape:connector-curvature="0" />
      <path
         sodipodi:nodetypes="ccccccccc"
         id="path5160"
         d="m 139.01829,754.22145 -3.04842,5.69628 -13.0563,11.57823 -9.36113,12.31726 -2.2171,-0.73903 8.86843,-17.49052 14.53437,-13.54899 -2.46345,6.15863 6.7436,-3.97186 z"
         style="fill:#cccccc;fill-rule:evenodd;stroke:#000000;stroke-width:1.25;stroke-linecap:round;stroke-linejoin:round;stroke-miterlimit:4;stroke-opacity:1;stroke-dasharray:none"
         inkscape:connector-curvature="0" />
      <path
         sodipodi:nodetypes="ccccc"
         id="path5166"
         d="m 132.02834,758.43966 0.49269,4.43421 3.94153,-3.20249 2.18617,-5.32671 -6.62039,4.09499 z"
         style="fill:#808080;fill-rule:evenodd;stroke:#000000;stroke-width:1.25;stroke-linecap:round;stroke-linejoin:round;stroke-miterlimit:4;stroke-opacity:1;stroke-dasharray:none"
         inkscape:connector-curvature="0" />
      <path
         id="path11038"
         d="m 606.81952,285.73457 c -2.18377,-0.0603 -4.3535,0.27208 -6.375,1.0625 L 455.47577,424.76582 c -6.85176,7.78841 -10.81288,14.51113 -12.5625,19.9375 L 610.94452,286.29707 c -1.3596,-0.32373 -2.74493,-0.5244 -4.125,-0.5625 z m -206.25,198.875 c -2.80193,0.23413 -5.87679,0.58702 -9.25,1.0625 l -14.90625,12.84375 c 0.39623,1.79345 1.328,4.03237 2.625,6.375 l 21.53125,-20.28125 z"
         style="fill:#999999;fill-rule:evenodd;stroke:none"
         inkscape:connector-curvature="0" />
    </g>
    <text
       transform="matrix(0.5324466,-0.8464636,0.8464636,0.5324466,0,0)"
       sodipodi:linespacing="125%"
       id="text3858"
       y="-666.90881"
       x="-1751.3688"
       style="font-size:91.03275299px;font-style:normal;font-variant:normal;font-weight:normal;font-stretch:normal;text-align:center;line-height:125%;letter-spacing:0px;word-spacing:0px;writing-mode:lr-tb;text-anchor:middle;fill:#162d50;fill-opacity:1;stroke:none;font-family:Nimbus Roman No9 L;-inkscape-font-specification:Nimbus Roman No9 L"
       xml:space="preserve"><tspan
         y="-666.90881"
         x="-1751.3688"
         id="tspan3860"
         sodipodi:role="line" /></text>
    <path
       id="path3866"
       d="m 301.53165,682.1484 c 10.88456,14.30641 22.60549,27.78902 34.97043,39.64134 10.77338,10.32462 19.98679,17.62679 31.19913,24.66619 8.86889,5.56531 12.07093,7.19634 19.56399,10.03771 21.39002,8.11431 40.55757,5.23374 52.29605,-7.9379 7.47668,-8.38963 11.041,-18.94231 10.728,-31.48064 -0.11998,-4.80852 -2.2697,-15.3854 -4.22185,-20.80383 -2.97423,-8.25499 -6.74601,-15.88137 -12.35953,-24.83038 l -37.32876,-13.98653 c 24.8789,27.01289 37.54858,53.13129 33.39374,68.72849 -1.32009,4.95662 -4.16721,8.957 -8.12205,11.44285 -2.88424,1.81296 -8.64484,2.95067 -13.19247,2.54011 -23.88657,-2.15147 -57.43776,-28.06741 -87.9308,-67.91357 -2.63332,-3.441 -5.00591,-7.08551 -7.52308,-10.61356 -0.2551,0.4406 -0.57885,0.88432 -0.83308,1.3244 -3.76741,6.52306 -7.06966,12.78358 -10.63972,19.18532 z"
       style="fill:#162d50;fill-opacity:1"
       inkscape:connector-curvature="0"
       sodipodi:nodetypes="ccccscccccscsccc" />
    <path
       id="path3868"
       d="m 152.18417,551.32063 c -3.07804,3.20354 -5.32603,6.29857 -6.00342,8.74258 -0.0889,0.32074 -0.004,0.77984 -0.0485,1.14574 l 6.05197,-9.88832 z"
       style="fill:#162d50;fill-opacity:1"
       inkscape:connector-curvature="0" />
    <text
       xml:space="preserve"
       style="font-size:91.03275299px;font-style:normal;font-variant:normal;font-weight:normal;font-stretch:normal;text-align:center;line-height:125%;letter-spacing:0px;word-spacing:0px;writing-mode:lr-tb;text-anchor:middle;fill:#162d50;fill-opacity:1;stroke:none;font-family:Nimbus Roman No9 L;-inkscape-font-specification:Nimbus Roman No9 L"
       x="-1751.3688"
       y="-666.90881"
       id="text3073"
       sodipodi:linespacing="125%"
       transform="matrix(0.5324466,-0.8464636,0.8464636,0.5324466,0,0)"><tspan
         sodipodi:role="line"
         id="tspan3075"
         x="-1751.3688"
         y="-666.90881" /></text>
    <path
       inkscape:connector-curvature="0"
       style="fill:#162d50;fill-opacity:1"
       d="m 391.45665,537.31903 c 12.53112,17.72612 26.22833,34.66259 40.47778,48.65087 31.54799,30.9693 62.42147,46.05745 78.58513,38.42546 9.89827,-4.67368 16.09534,-13.13354 17.92191,-24.35089 l -19.10857,-3.28175 c -0.31868,3.04874 -1.65149,6.04232 -3.0886,7.04727 -3.19606,2.23533 -9.30312,1.4141 -18.31918,-2.53315 -5.68947,-2.49262 -18.12053,-10.29862 -24.14017,-15.18477 -20.16611,-16.36561 -40.72719,-39.79172 -59.53498,-67.10781 -3.19683,4.6417 -6.72437,9.32714 -9.87074,13.95571 -0.99937,1.47015 -1.92852,2.91047 -2.92258,4.37906 z"
       id="path3003"
       sodipodi:nodetypes="cssccccccsc" />
    <path
       inkscape:connector-curvature="0"
       style="fill:#162d50;fill-opacity:1"
       d="m 152.18417,551.32063 c -3.07804,3.20354 -5.32603,6.29857 -6.00342,8.74258 -0.0889,0.32074 -0.004,0.77984 -0.0485,1.14574 l 6.05197,-9.88832 z"
       id="path2999" />
    <path
       inkscape:connector-curvature="0"
       style="fill:#162d50;fill-opacity:1"
       d="m 152.18417,551.32063 -6.05197,9.88832 c -0.26603,2.19542 0.0703,4.94942 1.12636,6.7579 0.89347,1.54605 1.53688,2.14301 3.56345,3.41777 2.1781,1.37008 2.73876,1.591 4.69947,1.61177 2.61579,0.0252 5.69449,-1.27434 7.82692,-3.22655 0.82928,-0.75949 2.77306,-2.51714 4.31591,-3.92271 5.2446,-4.77656 13.37679,-9.26093 20.34163,-11.23416 4.54013,-1.28623 11.11207,-2.27253 16.21507,-2.40322 6.78937,-0.17253 17.94026,0.94712 23.48373,2.33698 0.54021,0.1348 2.32392,0.53759 3.97028,0.90104 1.64486,0.36586 4.70598,1.15208 6.79481,1.75352 l 3.85667,1.08163 2.03907,9.18045 c 1.12844,5.01497 2.91316,12.04248 4.0257,15.63929 10.02326,32.43252 29.36084,67.79048 53.14038,99.04574 3.57006,-6.40174 6.87231,-12.66226 10.63972,-19.18532 0.25423,-0.44008 0.57798,-0.8838 0.83308,-1.3244 -17.05741,-23.90749 -31.55025,-49.51581 -41.63919,-74.58724 -3.0418,-7.55879 -7.43263,-20.00111 -7.42507,-21.05433 0.004,-0.50506 1.02987,-0.0613 11.84287,5.34898 l -8.5087,-26.94516 c -2.94382,-1.1117 -5.68802,-2.14958 -6.06174,-2.38466 -1.14683,-0.72138 -2.65389,-13.60078 -2.61977,-22.14863 0.0421,-10.52972 1.55068,-19.29301 4.86049,-28.0298 2.02186,-5.33709 7.43778,-14.05803 11.12617,-17.95511 5.23982,-5.53641 10.93623,-9.6041 17.79769,-12.66631 13.83297,-6.17351 33.00913,-6.37604 52.74953,-0.51101 2.30057,0.68422 4.38577,1.33043 4.61694,1.47584 0.23136,0.14553 1.29451,2.47115 2.3449,5.08784 9.20919,22.94628 23.24486,47.24253 39.36808,70.04994 0.99406,-1.46859 1.92321,-2.90891 2.92258,-4.37906 3.14636,-4.62857 6.67391,-9.31401 9.87074,-13.95571 -4.98554,-7.2409 -9.90471,-14.60926 -14.58302,-22.36412 -5.75178,-9.53405 -14.21862,-24.70657 -14.21213,-25.4916 0.003,-0.40795 1.07364,0.0267 7.52207,3.1352 l 9.61438,-19.15813 c -7.72381,-3.59684 -19.18382,-8.03081 -24.26248,-9.38035 l -2.30507,-0.60975 -2.33423,-6.17337 c -3.9703,-10.30813 -6.15755,-17.48345 -8.55822,-28.06857 -2.92028,-12.87814 -3.97086,-21.65983 -3.58205,-30.9038 1.02992,-24.48967 13.69028,-40.92763 34.77093,-45.2597 28.16676,-5.78793 71.45207,12.42543 116.86638,48.89418 4.30659,-5.60641 8.48319,-11.32847 12.81177,-16.89483 -5.01242,-4.04029 -9.70432,-8.317 -14.94416,-12.17289 -8.1686,-6.01474 -30.86921,-20.13603 -38.7017,-24.0924 -19.63771,-9.91645 -35.37232,-15.18774 -51.10772,-17.19258 -24.91047,-3.17368 -45.07008,2.62606 -59.27334,17.16015 -21.74665,22.25315 -26.18725,56.36874 -13.12106,100.46759 1.1805,3.98572 2.05965,7.27775 2.02935,7.32591 -0.0345,0.0549 -1.13703,-0.11633 -2.47887,-0.46702 -9.57539,-2.48937 -21.70609,-3.32305 -32.10103,-2.12818 -17.7616,2.04141 -32.3047,9.1733 -44.72246,21.94401 -3.29331,3.38847 -3.80727,4.07476 -8.93091,12.19448 -6.01402,9.52933 -6.9827,11.57367 -9.94353,20.88353 -3.63747,11.43761 -5.15404,25.45362 -4.43611,40.31151 l 0.1777,3.72461 -1.16807,-0.14661 c -0.62936,-0.10013 -3.67325,-0.75116 -6.76568,-1.39912 -6.48325,-1.35952 -17.78521,-2.5488 -24.0032,-2.57972 -17.09346,-0.0848 -32.83785,4.31137 -44.69531,12.55091 -3.78989,2.63355 -6.98252,5.47365 -9.62803,8.22703 z"
       id="path3790"
       sodipodi:nodetypes="cccscccsccccccccccscccssssscsccscscccccccscccccssccccccscccccsc" />
  </g>
</svg>
